<svg width="68" height="68" viewBox="0 0 68 68" fill="none" xmlns="http://www.w3.org/2000/svg">
<path d="M51.1135 38.3916C49.9235 39.5533 49.2435 41.225 49.4135 43.01C49.6685 46.07 52.4735 48.3083 55.5335 48.3083H60.9168V51.68C60.9168 57.545 56.1285 62.3333 50.2635 62.3333H21.6185C22.4968 61.5967 23.2618 60.69 23.8568 59.67C24.9052 57.97 25.5002 55.9583 25.5002 53.8333C25.5002 47.5717 20.4285 42.5 14.1668 42.5C11.5035 42.5 9.0385 43.435 7.0835 44.9933V32.6117C7.0835 26.7467 11.8718 21.9583 17.7368 21.9583H50.2635C56.1285 21.9583 60.9168 26.7467 60.9168 32.6117V36.6917H55.1935C53.6068 36.6917 52.1618 37.315 51.1135 38.3916Z" stroke="#EDEDED" stroke-width="4.25" stroke-linecap="round" stroke-linejoin="round"/>
<path d="M7.0835 35.1616V22.2135C7.0835 18.8418 9.15182 15.8383 12.2968 14.6483L34.7935 6.14833C38.3068 4.81666 42.0752 7.42341 42.0752 11.1917V21.9584" stroke="#EDEDED" stroke-width="4.25" stroke-linecap="round" stroke-linejoin="round"/>
<path d="M63.9168 39.5821V45.4189C63.9168 46.9773 62.6701 48.2521 61.0834 48.3088H55.5301C52.4701 48.3088 49.6651 46.0705 49.4101 43.0105C49.2401 41.2255 49.9201 39.5538 51.1101 38.3921C52.1584 37.3155 53.6034 36.6922 55.1901 36.6922H61.0834C62.6701 36.7489 63.9168 38.0238 63.9168 39.5821Z" stroke="#EDEDED" stroke-width="4.25" stroke-linecap="round" stroke-linejoin="round"/>
<path d="M19.8335 34H39.6668" stroke="#EDEDED" stroke-width="4.25" stroke-linecap="round" stroke-linejoin="round"/>
<path d="M25.5002 53.8333C25.5002 55.9583 24.9052 57.97 23.8568 59.67C23.2618 60.69 22.4968 61.5967 21.6185 62.3333C19.6352 64.1183 17.0285 65.1667 14.1668 65.1667C10.0302 65.1667 6.43183 62.9567 4.47683 59.67C3.4285 57.97 2.8335 55.9583 2.8335 53.8333C2.8335 50.2633 4.47683 47.0617 7.0835 44.9933C9.0385 43.435 11.5035 42.5 14.1668 42.5C20.4285 42.5 25.5002 47.5717 25.5002 53.8333Z" stroke="#EDEDED" stroke-width="4.25" stroke-miterlimit="10" stroke-linecap="round" stroke-linejoin="round"/>
<path d="M9.75049 53.832L12.5555 56.6369L18.5905 51.0553" stroke="#EDEDED" stroke-width="4.25" stroke-linecap="round" stroke-linejoin="round"/>
</svg>
