<svg width="68" height="68" viewBox="0 0 68 68" fill="none" xmlns="http://www.w3.org/2000/svg">
<path d="M45.3584 8.5H22.6917C18.7797 8.5 15.6084 11.6713 15.6084 15.5833V52.4167C15.6084 56.3287 18.7797 59.5 22.6917 59.5H45.3584C49.2704 59.5 52.4417 56.3287 52.4417 52.4167V15.5833C52.4417 11.6713 49.2704 8.5 45.3584 8.5Z" stroke="#EDEDED" stroke-width="2.83333"/>
<path d="M25.521 8.81893C24.1986 8.90959 22.8098 9.01951 21.326 9.1486C18.001 9.43786 15.8318 12.0818 15.5242 15.4378C14.2638 29.1895 14.5084 38.828 15.6075 52.42C15.884 55.84 18.0747 58.5716 21.4603 58.863C31.1861 59.7317 36.8513 59.6946 46.6322 58.8574C50.0096 58.5683 52.1612 55.8313 52.4408 52.42C53.5662 38.6891 53.6764 29.0745 52.483 15.4577C52.1873 12.084 50.0537 9.43334 46.7124 9.14127C45.2697 9.01515 43.9167 8.90774 42.6273 8.81893M25.521 8.81893L26.2156 12.049C26.6366 14.0072 28.3677 15.4056 30.3706 15.4056H37.7228C39.7002 15.4056 41.4163 14.0419 41.8629 12.1156L42.6273 8.81893M25.521 8.81893C31.7005 8.39527 36.43 8.39211 42.6273 8.81893" stroke="#EDEDED" stroke-width="4.25"/>
<path d="M34.0527 48.7333L34.0244 48.7333" stroke="#EDEDED" stroke-width="7.08333" stroke-linecap="round"/>
</svg>
