<svg width="69" height="68" viewBox="0 0 69 68" fill="none" xmlns="http://www.w3.org/2000/svg">
<path d="M65.6668 45.2483C65.6668 56.2133 56.7985 65.0816 45.8335 65.0816L48.8085 60.1233" stroke="#EDEDED" stroke-width="4.25" stroke-linecap="round" stroke-linejoin="round"/>
<path d="M3.3335 22.5816C3.3335 11.6166 12.2018 2.74825 23.1668 2.74825L20.1918 7.70659" stroke="#EDEDED" stroke-width="4.25" stroke-linecap="round" stroke-linejoin="round"/>
<path d="M42.5747 43.435C42.5747 53.0967 34.7547 60.9167 25.093 60.9167C15.4313 60.9167 7.61133 53.0967 7.61133 43.435C7.61133 33.7734 15.4313 25.9532 25.093 25.9532C25.5463 25.9532 25.9713 25.9816 26.453 26.01C35.038 26.6616 41.8947 33.5183 42.5463 42.1033C42.5463 42.5283 42.5747 42.9534 42.5747 43.435Z" stroke="#EDEDED" stroke-width="4.25" stroke-miterlimit="10" stroke-linecap="round" stroke-linejoin="round"/>
<path fill-rule="evenodd" clip-rule="evenodd" d="M35.0015 35V38.4477H28.0977L27.791 40.8381C32.6398 41.0936 36.5843 42.1427 36.6114 43.4002L36.6112 46.0218C36.5853 47.2265 33.2461 48.2399 28.7029 48.5476L29.7452 46.595C33.2323 46.2274 35.3632 45.6823 36.3635 44.7111C35.466 43.7064 31.9126 42.9157 27.791 42.6985L27.6687 43.6503H30.4294L28.8037 46.6871C28.8049 46.687 28.8062 46.6869 28.8074 46.6868L27.7946 48.584H27.7914L27.2467 49.6104L26.7864 50.4726L26.7886 50.4737L24.3865 55L24.7021 51.1566L24.7089 51.1572L25.0642 46.7775L25.108 46.2373L25.1922 45.2607C25.1922 45.2607 23.6388 45.2402 22.9 45.2013L23.2068 42.6985C19.0851 42.9157 16.1453 43.7064 15.2477 44.7111C16.2026 45.7799 19.8163 46.6087 24.3138 46.7604L24.1634 48.6149L23.5135 48.584C18.6648 48.3285 15.0269 47.2794 15 46.0218L15.0001 43.4002C15.0271 42.1427 18.358 41.0936 23.2068 40.8381L23.5135 38.4477H16.6097V35H35.0015Z" fill="white"/>
<path d="M61.416 24.5649C61.416 34.2266 53.596 42.0467 43.9343 42.0467H42.546C41.8943 33.4617 35.0376 26.6049 26.4526 25.9533V24.5649C26.4526 14.9033 34.2726 7.08333 43.9343 7.08333C53.596 7.08333 61.416 14.9033 61.416 24.5649Z" stroke="#EDEDED" stroke-width="4.25" stroke-miterlimit="10" stroke-linecap="round" stroke-linejoin="round"/>
</svg>
