<svg width="776" height="163" viewBox="0 0 776 163" fill="none" xmlns="http://www.w3.org/2000/svg">
<g clip-path="url(#clip0_2_38)">
<path d="M159.597 100.61C148.776 144.018 104.818 170.424 61.4097 159.603C18.024 148.783 -8.38924 104.823 2.43631 61.4242C13.2517 18.0156 57.2071 -8.39758 100.6 2.42291C144.004 13.2434 170.417 57.2089 159.597 100.61Z" fill="#F7931A"/>
<path d="M116.735 69.4724C118.348 58.6925 110.14 52.8974 98.9169 49.0315L102.557 34.4286L93.6687 32.2134L90.1243 46.4314C87.7567 45.8497 85.3836 45.291 83.0051 44.7555L86.5748 30.4438L77.6886 28.2285L74.048 42.8263C72.1138 42.3858 70.215 41.9503 68.3719 41.4921L68.382 41.4465L56.1235 38.3857L53.7589 47.8796C53.7589 47.8796 60.354 49.391 60.2148 49.4847C63.8148 50.3834 64.4655 52.7658 64.3566 54.6544L60.2097 71.2902C60.4578 71.3535 60.7793 71.4472 61.1338 71.5864L60.1945 71.3535L54.3817 94.6578C53.9412 95.7515 52.8247 97.392 50.3057 96.7692C50.3968 96.8984 43.8473 95.1565 43.8473 95.1565L39.4346 105.334L51.0019 108.22C53.1539 108.757 55.2628 109.321 57.3388 109.853L53.6602 124.623L62.5389 126.838L66.1795 112.223C68.6048 112.884 70.9593 113.489 73.2631 114.063L69.6327 128.608L78.519 130.823L82.2001 116.081C97.3573 118.949 108.755 117.792 113.553 104.086C117.419 93.0476 113.36 86.6804 105.385 82.5259C111.193 81.1841 115.568 77.3638 116.735 69.4724ZM96.4231 97.949C93.6763 108.987 75.091 103.023 69.0656 101.524L73.9467 81.9563C79.9722 83.4626 99.2941 86.4399 96.4231 97.949ZM99.1726 69.3155C96.6662 79.3537 81.1975 74.2523 76.1797 73.0016L80.6051 55.2544C85.6229 56.5051 101.783 58.8418 99.1726 69.3155Z" fill="white"/>
<path d="M237.421 49.0163C243.991 49.0163 249.667 50.1935 254.434 52.5049C259.229 54.8392 263.184 57.9835 266.356 61.9381C269.485 65.9128 271.814 70.5585 273.318 75.8827C274.812 81.2245 275.561 86.9614 275.561 93.1033C275.561 102.547 273.832 111.458 270.341 119.863C266.847 128.281 262.113 135.585 256.087 141.813C250.067 148.034 242.958 152.935 234.76 156.558C226.575 160.183 217.676 161.996 208.122 161.996C206.886 161.996 204.714 161.96 201.646 161.897C198.577 161.834 195.05 161.517 191.101 160.986C186.856 160.38 182.645 159.553 178.486 158.51C174.133 157.459 169.904 155.948 165.87 154.003L201.344 4.94189L233.117 0.0202637L220.416 52.9151C223.057 51.7212 225.799 50.7622 228.608 50.0492C231.492 49.3482 234.453 49.0013 237.421 49.0163ZM210.77 136.79C215.555 136.79 220.061 135.613 224.299 133.304C228.559 130.975 232.297 127.8 235.284 123.972C238.406 119.982 240.862 115.513 242.558 110.739C244.336 105.804 245.239 100.597 245.226 95.3514C245.226 88.7893 244.13 83.6803 241.945 79.9764C239.76 76.2928 235.717 74.4396 229.844 74.4396C227.92 74.4396 225.444 74.8067 222.37 75.4624C219.286 76.1586 216.527 77.6042 214.053 79.7789L200.527 135.952C201.342 136.097 202.063 136.233 202.679 136.362C203.281 136.502 203.944 136.6 204.61 136.669C205.311 136.747 206.114 136.788 207.084 136.788L210.77 136.79ZM308.511 159.145H278.164L303.792 51.3024H334.347L308.511 159.145ZM323.279 38.1629C319.138 38.1972 315.102 36.8661 311.795 34.3754C308.359 31.864 306.655 27.9981 306.655 22.7878C306.655 19.922 307.238 17.2333 308.395 14.6965C309.513 12.2392 311.081 10.0126 313.018 8.13183C314.959 6.27893 317.213 4.78489 319.676 3.71908C322.239 2.62372 325 2.06704 327.788 2.0836C332.021 2.0836 335.838 3.34439 339.261 5.87102C342.669 8.41032 344.383 12.2762 344.383 17.4586C344.4 20.2559 343.803 23.0229 342.636 25.5651C341.529 28.0249 339.965 30.2524 338.028 32.1298C336.092 33.9851 333.836 35.4757 331.37 36.5299C328.833 37.6388 326.144 38.1629 323.279 38.1629ZM360.943 24.4334L392.728 19.5093L384.923 51.2973H418.964L412.817 76.3055H378.981L369.968 114.028C369.138 117.17 368.667 120.106 368.535 122.838C368.383 125.58 368.733 127.934 369.553 129.917C370.368 131.904 371.832 133.436 373.958 134.517C376.077 135.618 379.108 136.173 383.082 136.173C386.356 136.173 389.548 135.861 392.627 135.243C395.79 134.616 398.904 133.762 401.944 132.686L404.212 156.067C399.857 157.644 395.405 158.942 390.885 159.953C386.093 161.057 380.419 161.586 373.862 161.586C364.434 161.586 357.125 160.186 351.917 157.401C346.717 154.596 343.041 150.758 340.841 145.902C338.671 141.066 337.702 135.489 337.973 129.203C338.251 122.904 339.203 116.281 340.841 109.311L360.943 24.4334ZM417.63 116.084C417.63 106.792 419.134 98.035 422.136 89.8323C425.136 81.6245 429.458 74.4472 435.063 68.2901C440.651 62.1634 447.458 57.305 455.474 53.7404C463.444 50.196 472.375 48.4087 482.214 48.4087C488.376 48.4087 493.877 48.9909 498.72 50.1581C503.581 51.3353 507.976 52.8568 511.954 54.7657L501.49 78.5637C498.701 77.4427 495.861 76.4509 492.981 75.5915C490.044 74.6877 486.462 74.2522 482.221 74.2522C472.089 74.2522 464.084 77.746 458.125 84.7031C452.185 91.6678 449.195 101.043 449.195 112.805C449.195 119.775 450.702 125.408 453.719 129.719C456.722 134.031 462.269 136.178 470.322 136.178C474.294 136.178 478.133 135.762 481.806 134.952C485.507 134.132 488.776 133.099 491.654 131.879L493.923 156.274C489.771 157.867 485.526 159.206 481.211 160.284C476.553 161.424 471.016 162.011 464.593 162.011C456.117 162.011 448.937 160.773 443.068 158.327C437.195 155.849 432.342 152.555 428.516 148.383C424.673 144.201 421.916 139.314 420.21 133.712C418.503 128.109 417.63 122.218 417.63 116.084ZM552.443 162.003C545.2 162.003 538.906 160.9 533.569 158.715C528.248 156.532 523.842 153.464 520.354 149.489C516.86 145.535 514.25 140.849 512.46 135.448C510.67 130.051 509.809 124.074 509.809 117.524C509.809 109.311 511.126 101.098 513.794 92.9033C516.45 84.7006 520.387 77.3232 525.592 70.7686C530.764 64.2039 537.144 58.8367 544.648 54.6518C552.149 50.4948 560.775 48.4036 570.469 48.4036C577.58 48.4036 583.836 49.5099 589.249 51.6948C594.634 53.8746 599.069 56.9658 602.576 60.9203C606.044 64.8951 608.682 69.561 610.449 74.9712C612.237 80.3562 613.118 86.3487 613.118 92.9033C613.118 101.091 611.816 109.309 609.237 117.522C606.652 125.699 602.816 133.091 597.753 139.659C592.7 146.216 586.383 151.578 578.79 155.745C571.213 159.915 562.42 162.003 552.443 162.003ZM567.608 74.2548C563.109 74.2548 559.132 75.5586 555.727 78.1384C552.309 80.7486 549.44 84.0322 547.126 87.9867C544.787 91.9615 543.055 96.2958 541.883 101.007C540.719 105.729 540.149 110.197 540.149 114.433C540.149 121.276 541.255 126.61 543.423 130.443C545.62 134.256 549.575 136.178 555.316 136.178C559.831 136.178 563.79 134.879 567.213 132.274C570.61 129.684 573.487 126.4 575.816 122.433C578.14 118.484 579.889 114.134 581.061 109.412C582.208 104.706 582.793 100.217 582.793 95.9844C582.793 89.1589 581.694 83.817 579.502 79.9865C577.319 76.1713 573.347 74.2548 567.608 74.2548ZM646.189 159.145H615.819L641.447 51.3024H672.015L646.189 159.145ZM660.934 38.1629C656.798 38.1978 652.765 36.8665 649.463 34.3754C646.04 31.864 644.323 27.9981 644.323 22.7878C644.323 19.922 644.916 17.2333 646.07 14.6965C647.181 12.2362 648.748 10.0087 650.688 8.13183C652.632 6.27827 654.889 4.7842 657.354 3.71908C659.907 2.62351 662.659 2.06674 665.438 2.0836C669.683 2.0836 673.514 3.34439 676.929 5.87102C680.344 8.41032 682.066 12.2762 682.066 17.4586C682.066 20.3346 681.453 23.0334 680.307 25.5651C679.16 28.0968 677.618 30.2766 675.709 32.1298C673.769 33.9807 671.514 35.4708 669.051 36.5299C666.506 37.6388 663.818 38.1629 660.934 38.1629ZM693.887 56.2063C696.19 55.5329 698.763 54.7227 701.558 53.8417C704.667 52.8774 707.821 52.063 711.008 51.4011C714.474 50.6416 718.386 50.0213 722.687 49.5429C726.986 49.0542 731.89 48.8163 737.333 48.8163C753.338 48.8163 764.372 53.4771 770.463 62.771C776.549 72.0649 777.602 84.7816 773.653 100.906L759.693 159.135H729.146L742.677 102.129C743.5 98.5718 744.146 95.1286 744.627 91.7665C745.113 88.4348 745.083 85.4955 744.521 82.9562C744.024 80.5218 742.685 78.3405 740.738 76.7966C738.736 75.2295 735.71 74.4421 731.609 74.4421C727.547 74.4581 723.497 74.8754 719.517 75.6877L699.626 159.127H669.068L693.887 56.2063Z" fill="white"/>
</g>
<defs>
<clipPath id="clip0_2_38">
<rect width="776" height="162.029" fill="white"/>
</clipPath>
</defs>
</svg>
