<svg width="570" height="170" viewBox="0 0 570 170" fill="none" xmlns="http://www.w3.org/2000/svg">
<path d="M3.38354 89.5525L87.574 2.12674C91.2426 -0.704432 94.7392 2.12675 92.5 6.98371L65.6307 70.6643H113.548C113.548 70.6643 121.161 70.6643 113.548 78.2196L30.7007 166.185C24.879 172.121 20.8486 168.883 24.879 159.709L50.8526 97.6474H3.38354C3.38354 97.6474 -4.22943 97.6474 3.38354 89.5525Z" fill="#FFEE31"/>
<path d="M171.648 75.96C167.104 75.96 163.52 75.384 160.896 74.232C158.336 73.016 156.48 71.384 155.328 69.336C154.24 67.288 153.696 64.952 153.696 62.328C153.76 59.64 154.144 56.792 154.848 53.784L167.04 2.80803L181.92 0.504028L168.576 55.8C168.32 56.952 168.16 58.008 168.096 58.968C168.096 59.928 168.288 60.792 168.672 61.56C169.056 62.264 169.696 62.84 170.592 63.288C171.552 63.736 172.864 64.024 174.528 64.152L171.648 75.96Z" fill="white"/>
<path d="M198.089 75H183.881L195.881 24.504H210.185L198.089 75ZM205.001 18.36C203.017 18.36 201.225 17.784 199.625 16.632C198.025 15.416 197.225 13.592 197.225 11.16C197.225 9.81603 197.481 8.56803 197.993 7.41603C198.569 6.20003 199.305 5.17603 200.201 4.34402C201.097 3.44802 202.121 2.74403 203.273 2.23203C204.489 1.72003 205.769 1.46403 207.113 1.46403C209.097 1.46403 210.889 2.07203 212.489 3.28803C214.089 4.44003 214.889 6.23203 214.889 8.66403C214.889 10.008 214.601 11.288 214.025 12.504C213.513 13.656 212.809 14.68 211.913 15.576C211.017 16.408 209.961 17.08 208.745 17.592C207.593 18.104 206.345 18.36 205.001 18.36Z" fill="white"/>
<path d="M257.533 68.664C256.573 72.824 255.293 76.408 253.693 79.416C252.157 82.488 250.205 85.016 247.837 87C245.533 89.048 242.749 90.552 239.485 91.512C236.221 92.536 232.413 93.048 228.061 93.048C224.029 93.048 220.637 92.664 217.885 91.896C215.133 91.192 212.637 90.296 210.397 89.208L215.197 77.88C217.181 78.776 219.229 79.544 221.341 80.184C223.517 80.824 226.173 81.144 229.309 81.144C233.405 81.144 236.477 80.216 238.525 78.36C240.637 76.568 242.013 74.232 242.653 71.352L243.037 69.528C241.757 70.168 240.381 70.68 238.909 71.064C237.501 71.448 235.997 71.64 234.397 71.64C231.389 71.64 228.797 71.192 226.621 70.296C224.445 69.336 222.653 68.024 221.245 66.36C219.901 64.696 218.877 62.744 218.173 60.504C217.533 58.2 217.213 55.704 217.213 53.016C217.213 48.152 218.109 43.864 219.901 40.152C221.693 36.376 224.061 33.24 227.005 30.744C230.013 28.248 233.437 26.36 237.277 25.08C241.181 23.8 245.245 23.16 249.469 23.16C252.541 23.16 255.581 23.48 258.589 24.12C261.597 24.76 264.541 25.752 267.421 27.096L257.533 68.664ZM251.197 35.544C250.109 35.288 248.765 35.16 247.165 35.16C244.733 35.16 242.557 35.608 240.637 36.504C238.717 37.336 237.053 38.488 235.645 39.96C234.301 41.432 233.245 43.224 232.477 45.336C231.773 47.384 231.421 49.592 231.421 51.96C231.421 53.112 231.517 54.2 231.709 55.224C231.901 56.184 232.253 57.048 232.765 57.816C233.277 58.52 233.981 59.096 234.877 59.544C235.773 59.992 236.893 60.216 238.237 60.216C239.133 60.216 240.317 60.056 241.789 59.736C243.325 59.416 244.701 58.68 245.917 57.528L251.197 35.544Z" fill="white"/>
<path d="M305.378 23.64C308.13 23.64 310.498 24.056 312.482 24.888C314.466 25.656 316.098 26.776 317.378 28.248C318.658 29.656 319.618 31.352 320.258 33.336C320.898 35.32 321.217 37.464 321.217 39.768C321.217 42.456 320.898 45.112 320.258 47.736L313.729 75H299.426L305.762 48.312C306.018 47.224 306.242 46.072 306.434 44.856C306.69 43.64 306.818 42.488 306.818 41.4C306.818 39.736 306.37 38.328 305.474 37.176C304.642 35.96 303.01 35.352 300.578 35.352C299.554 35.352 298.562 35.416 297.602 35.544C296.706 35.672 295.81 35.832 294.914 36.024L285.602 75H271.297L288.578 2.80803L303.457 0.504028L297.602 24.6C298.882 24.344 300.161 24.12 301.441 23.928C302.785 23.736 304.098 23.64 305.378 23.64Z" fill="white"/>
<path d="M342.187 11.928L357.067 9.62403L353.419 24.504H369.355L366.475 36.216H350.635L346.411 53.88C346.027 55.352 345.771 56.728 345.643 58.008C345.579 59.288 345.739 60.408 346.123 61.368C346.571 62.264 347.307 62.968 348.331 63.48C349.355 63.992 350.763 64.248 352.555 64.248C354.091 64.248 355.563 64.12 356.971 63.864C358.443 63.544 359.915 63.128 361.387 62.616L362.443 73.56C360.523 74.264 358.443 74.872 356.203 75.384C353.963 75.896 351.307 76.152 348.235 76.152C343.819 76.152 340.395 75.512 337.963 74.232C335.531 72.888 333.803 71.096 332.779 68.856C331.755 66.552 331.307 63.928 331.435 60.984C331.563 58.04 332.011 54.936 332.779 51.672L342.187 11.928Z" fill="white"/>
<path d="M382.892 26.808C383.98 26.488 385.164 26.136 386.444 25.752C387.788 25.304 389.26 24.92 390.86 24.6C392.524 24.216 394.348 23.928 396.332 23.736C398.38 23.48 400.684 23.352 403.244 23.352C410.796 23.352 415.98 25.528 418.796 29.88C421.612 34.232 422.092 40.184 420.236 47.736L413.708 75H399.404L405.74 48.312C406.124 46.648 406.412 45.048 406.604 43.512C406.86 41.912 406.86 40.536 406.604 39.384C406.348 38.168 405.74 37.208 404.78 36.504C403.884 35.736 402.476 35.352 400.556 35.352C398.7 35.352 396.812 35.544 394.892 35.928L385.58 75H371.276L382.892 26.808Z" fill="white"/>
<path d="M442.833 75H428.625L440.625 24.504H454.929L442.833 75ZM449.745 18.36C447.761 18.36 445.969 17.784 444.369 16.632C442.769 15.416 441.969 13.592 441.969 11.16C441.969 9.81603 442.225 8.56803 442.737 7.41603C443.313 6.20003 444.049 5.17603 444.945 4.34402C445.841 3.44802 446.865 2.74403 448.017 2.23203C449.233 1.72003 450.513 1.46403 451.857 1.46403C453.841 1.46403 455.633 2.07203 457.233 3.28803C458.833 4.44003 459.633 6.23203 459.633 8.66403C459.633 10.008 459.345 11.288 458.769 12.504C458.257 13.656 457.553 14.68 456.657 15.576C455.761 16.408 454.705 17.08 453.489 17.592C452.337 18.104 451.089 18.36 449.745 18.36Z" fill="white"/>
<path d="M470.309 26.808C471.397 26.488 472.581 26.136 473.861 25.752C475.205 25.304 476.677 24.92 478.277 24.6C479.941 24.216 481.765 23.928 483.749 23.736C485.797 23.48 488.1 23.352 490.66 23.352C498.212 23.352 503.396 25.528 506.212 29.88C509.028 34.232 509.508 40.184 507.652 47.736L501.125 75H486.82L493.156 48.312C493.54 46.648 493.829 45.048 494.021 43.512C494.277 41.912 494.277 40.536 494.021 39.384C493.765 38.168 493.157 37.208 492.197 36.504C491.301 35.736 489.893 35.352 487.973 35.352C486.117 35.352 484.229 35.544 482.309 35.928L472.996 75H458.693L470.309 26.808Z" fill="white"/>
<path d="M559.625 68.664C558.665 72.824 557.385 76.408 555.785 79.416C554.249 82.488 552.297 85.016 549.929 87C547.625 89.048 544.841 90.552 541.577 91.512C538.313 92.536 534.505 93.048 530.153 93.048C526.121 93.048 522.729 92.664 519.977 91.896C517.225 91.192 514.729 90.296 512.489 89.208L517.289 77.88C519.273 78.776 521.321 79.544 523.433 80.184C525.609 80.824 528.265 81.144 531.401 81.144C535.497 81.144 538.569 80.216 540.617 78.36C542.729 76.568 544.105 74.232 544.745 71.352L545.129 69.528C543.849 70.168 542.473 70.68 541.001 71.064C539.593 71.448 538.089 71.64 536.489 71.64C533.481 71.64 530.889 71.192 528.713 70.296C526.537 69.336 524.745 68.024 523.337 66.36C521.993 64.696 520.969 62.744 520.265 60.504C519.625 58.2 519.305 55.704 519.305 53.016C519.305 48.152 520.201 43.864 521.993 40.152C523.785 36.376 526.153 33.24 529.097 30.744C532.105 28.248 535.529 26.36 539.369 25.08C543.273 23.8 547.337 23.16 551.561 23.16C554.633 23.16 557.673 23.48 560.681 24.12C563.689 24.76 566.633 25.752 569.513 27.096L559.625 68.664ZM553.289 35.544C552.201 35.288 550.857 35.16 549.257 35.16C546.825 35.16 544.649 35.608 542.729 36.504C540.809 37.336 539.145 38.488 537.737 39.96C536.393 41.432 535.337 43.224 534.569 45.336C533.865 47.384 533.513 49.592 533.513 51.96C533.513 53.112 533.609 54.2 533.801 55.224C533.993 56.184 534.345 57.048 534.857 57.816C535.369 58.52 536.073 59.096 536.969 59.544C537.865 59.992 538.985 60.216 540.329 60.216C541.225 60.216 542.409 60.056 543.881 59.736C545.417 59.416 546.793 58.68 548.009 57.528L553.289 35.544Z" fill="white"/>
<path d="M162.336 117.808C163.424 117.488 164.608 117.136 165.888 116.752C167.232 116.304 168.704 115.92 170.304 115.6C171.968 115.216 173.792 114.928 175.776 114.736C177.824 114.48 180.128 114.352 182.688 114.352C190.24 114.352 195.424 116.528 198.24 120.88C201.056 125.232 201.536 131.184 199.68 138.736L193.152 166H178.848L185.184 139.312C185.568 137.648 185.856 136.048 186.048 134.512C186.304 132.912 186.304 131.536 186.048 130.384C185.792 129.168 185.184 128.208 184.224 127.504C183.328 126.736 181.92 126.352 180 126.352C178.144 126.352 176.256 126.544 174.336 126.928L165.024 166H150.72L162.336 117.808Z" fill="white"/>
<path d="M210.949 146.224C210.949 142.128 211.653 138.16 213.061 134.32C214.533 130.48 216.581 127.088 219.205 124.144C221.829 121.136 224.997 118.736 228.709 116.944C232.485 115.088 236.645 114.16 241.189 114.16C243.429 114.16 245.509 114.48 247.429 115.12C249.349 115.76 251.013 116.688 252.421 117.904C253.893 119.12 255.013 120.624 255.781 122.416C256.613 124.144 257.029 126.128 257.029 128.368C257.029 131.952 256.229 134.992 254.629 137.488C253.029 139.984 250.789 142.032 247.909 143.632C245.093 145.168 241.733 146.288 237.829 146.992C233.925 147.696 229.669 148.048 225.061 148.048C225.509 150.736 226.469 152.656 227.941 153.808C229.477 154.896 231.877 155.44 235.141 155.44C237.189 155.44 239.269 155.28 241.381 154.96C243.493 154.576 245.477 154.032 247.333 153.328L248.389 164.56C246.597 165.264 244.293 165.904 241.477 166.48C238.725 167.056 235.717 167.344 232.453 167.344C228.485 167.344 225.125 166.8 222.373 165.712C219.685 164.56 217.477 163.024 215.749 161.104C214.085 159.184 212.869 156.944 212.101 154.384C211.333 151.824 210.949 149.104 210.949 146.224ZM238.885 125.488C235.621 125.488 232.741 126.672 230.245 129.04C227.813 131.344 226.213 134.416 225.445 138.256C229.413 138.128 232.613 137.808 235.045 137.296C237.477 136.72 239.365 136.048 240.709 135.28C242.053 134.512 242.949 133.68 243.397 132.784C243.845 131.888 244.069 130.992 244.069 130.096C244.069 127.024 242.341 125.488 238.885 125.488Z" fill="white"/>
<path d="M275.583 102.928L290.463 100.624L286.815 115.504H302.751L299.871 127.216H284.031L279.807 144.88C279.423 146.352 279.167 147.728 279.039 149.008C278.975 150.288 279.135 151.408 279.519 152.368C279.967 153.264 280.703 153.968 281.727 154.48C282.751 154.992 284.159 155.248 285.951 155.248C287.487 155.248 288.959 155.12 290.367 154.864C291.839 154.544 293.311 154.128 294.783 153.616L295.839 164.56C293.919 165.264 291.839 165.872 289.599 166.384C287.359 166.896 284.703 167.152 281.631 167.152C277.215 167.152 273.791 166.512 271.359 165.232C268.927 163.888 267.199 162.096 266.175 159.856C265.151 157.552 264.703 154.928 264.831 151.984C264.959 149.04 265.407 145.936 266.175 142.672L275.583 102.928Z" fill="white"/>
<path d="M345.162 136.432C343.946 139.056 342.57 141.744 341.034 144.496C339.562 147.184 338.026 149.84 336.426 152.464C334.89 155.024 333.386 157.488 331.914 159.856C330.442 162.16 329.13 164.208 327.978 166H316.842C316.33 163.312 315.786 160.112 315.21 156.4C314.698 152.688 314.186 148.656 313.674 144.304C313.162 139.888 312.682 135.248 312.234 130.384C311.85 125.456 311.562 120.496 311.37 115.504H325.386C325.386 117.808 325.386 120.304 325.386 122.992C325.45 125.68 325.514 128.464 325.578 131.344C325.706 134.224 325.866 137.168 326.058 140.176C326.25 143.184 326.506 146.16 326.826 149.104C328.426 146.416 329.994 143.632 331.53 140.752C333.13 137.808 334.634 134.896 336.042 132.016C337.514 129.072 338.858 126.192 340.074 123.376C341.354 120.56 342.474 117.936 343.434 115.504H355.338C355.338 120.112 355.402 125.264 355.53 130.96C355.722 136.656 356.138 142.704 356.778 149.104C358.506 146.224 360.106 143.28 361.578 140.272C363.05 137.2 364.394 134.192 365.61 131.248C366.89 128.304 368.01 125.488 368.97 122.8C369.994 120.112 370.89 117.68 371.658 115.504H386.826C385.546 118.704 384.01 122.32 382.218 126.352C380.49 130.32 378.474 134.512 376.17 138.928C373.866 143.344 371.274 147.856 368.394 152.464C365.514 157.072 362.314 161.584 358.794 166H347.658C346.89 160.752 346.314 155.728 345.93 150.928C345.546 146.128 345.29 141.296 345.162 136.432Z" fill="white"/>
<path d="M410.651 167.344C407.259 167.344 404.315 166.832 401.819 165.808C399.323 164.784 397.242 163.344 395.578 161.488C393.978 159.632 392.763 157.456 391.931 154.96C391.099 152.4 390.682 149.584 390.682 146.512C390.682 142.672 391.291 138.832 392.507 134.992C393.787 131.152 395.642 127.696 398.074 124.624C400.506 121.552 403.483 119.056 407.003 117.136C410.523 115.152 414.555 114.16 419.099 114.16C422.427 114.16 425.339 114.672 427.835 115.696C430.395 116.72 432.475 118.16 434.075 120.016C435.739 121.872 436.987 124.08 437.819 126.64C438.651 129.136 439.066 131.92 439.066 134.992C439.066 138.832 438.459 142.672 437.243 146.512C436.027 150.352 434.235 153.808 431.867 156.88C429.499 159.952 426.523 162.48 422.939 164.464C419.419 166.384 415.323 167.344 410.651 167.344ZM417.755 126.256C415.643 126.256 413.786 126.864 412.186 128.08C410.586 129.296 409.243 130.832 408.155 132.688C407.067 134.544 406.235 136.592 405.659 138.832C405.147 141.008 404.891 143.088 404.891 145.072C404.891 148.336 405.403 150.864 406.427 152.656C407.451 154.384 409.307 155.248 411.995 155.248C414.107 155.248 415.962 154.64 417.562 153.424C419.163 152.208 420.507 150.672 421.595 148.816C422.683 146.96 423.483 144.944 423.995 142.768C424.571 140.528 424.859 138.416 424.859 136.432C424.859 133.168 424.347 130.672 423.323 128.944C422.299 127.152 420.443 126.256 417.755 126.256Z" fill="white"/>
<path d="M484.4 127.792C483.12 127.472 481.84 127.184 480.56 126.928C479.344 126.608 477.519 126.448 475.087 126.448C474.191 126.448 473.199 126.544 472.111 126.736C471.023 126.864 470.127 127.024 469.423 127.216L460.111 166H445.807L457.327 118.192C460.079 117.296 463.151 116.464 466.543 115.696C469.999 114.864 473.871 114.448 478.159 114.448C479.759 114.448 481.519 114.608 483.439 114.928C485.423 115.184 487.152 115.632 488.624 116.272L484.4 127.792Z" fill="white"/>
<path d="M510.14 133.744C513.98 130.672 517.596 127.536 520.988 124.336C524.38 121.136 527.292 118.192 529.724 115.504H545.852C542.268 119.472 538.524 123.376 534.62 127.216C530.78 130.992 526.364 135.024 521.372 139.312C522.716 140.976 524.06 142.896 525.404 145.072C526.812 147.248 528.124 149.52 529.34 151.888C530.62 154.256 531.772 156.656 532.796 159.088C533.884 161.52 534.78 163.824 535.484 166H519.548C518.972 164.336 518.236 162.512 517.34 160.528C516.508 158.544 515.548 156.592 514.46 154.672C513.436 152.688 512.348 150.768 511.196 148.912C510.044 147.056 508.892 145.392 507.74 143.92L502.364 166H488.156L505.436 93.808L520.316 91.504L510.14 133.744Z" fill="white"/>
</svg>
