<svg width="219" height="300" viewBox="0 0 219 300" fill="none" xmlns="http://www.w3.org/2000/svg">
<path fill-rule="evenodd" clip-rule="evenodd" d="M218.583 109.483C218.583 49.3188 169.806 0.54126 109.642 0.54126C49.4712 0.54126 0.700195 49.3057 0.700195 109.483C0.700195 169.66 49.4799 218.425 109.642 218.425C169.804 218.425 218.583 169.647 218.583 109.483ZM208.441 109.483C208.441 54.92 164.205 10.6835 109.642 10.6835C55.073 10.6835 10.8424 54.9081 10.8424 109.483C10.8424 164.058 55.0809 208.282 109.642 208.282C164.203 208.282 208.441 164.046 208.441 109.483Z" fill="url(#paint0_linear_1_2099)"/>
<path d="M5.90289 285.414V244.854H12.7358V285.414H5.90289ZM39.9068 255.896C46.9037 255.896 52.0967 259.886 52.0967 268.687V285.414H45.2638V269.562C45.2638 264.369 42.6946 261.854 38.3216 261.854C33.4565 261.854 30.1768 264.806 30.1768 270.655V285.414H23.3439V256.224H29.8488V259.996C32.09 257.317 35.6431 255.896 39.9068 255.896ZM79.5141 285.961C69.0188 285.961 62.7325 279.893 62.7325 268.742V247.15H69.8387V268.468C69.8387 276.34 73.3918 279.729 79.5688 279.729C85.7457 279.729 89.2442 276.34 89.2442 268.468V247.15H96.2411V268.742C96.2411 279.893 89.9548 285.961 79.5141 285.961ZM119.695 285.961C113.737 285.961 107.778 284.102 104.608 281.369L107.068 275.848C110.129 278.308 114.994 280.057 119.695 280.057C125.653 280.057 128.168 277.925 128.168 275.083C128.168 266.828 105.428 272.24 105.428 258.028C105.428 251.851 110.348 246.603 120.843 246.603C125.435 246.603 130.245 247.806 133.579 249.992L131.338 255.513C127.894 253.491 124.123 252.507 120.788 252.507C114.885 252.507 112.479 254.802 112.479 257.7C112.479 265.844 135.165 260.542 135.165 274.591C135.165 280.713 130.19 285.961 119.695 285.961ZM143.851 285.414V247.15H160.578C172.986 247.15 181.459 254.802 181.459 266.282C181.459 277.761 172.986 285.414 160.578 285.414H143.851ZM150.957 279.401H160.25C168.777 279.401 174.298 274.208 174.298 266.282C174.298 258.356 168.777 253.163 160.25 253.163H150.957V279.401ZM197.88 285.414V253.163H185.199V247.15H217.668V253.163H204.987V285.414H197.88Z" fill="url(#paint1_linear_1_2099)"/>
<path fill-rule="evenodd" clip-rule="evenodd" d="M162.11 58.2471V77.9014H122.754L121.006 91.5281C148.647 92.9844 171.133 98.9651 171.287 106.134L171.286 121.079C171.139 127.946 152.104 133.723 126.205 135.477L132.147 124.346C152.025 122.25 164.172 119.143 169.875 113.606C164.758 107.879 144.502 103.372 121.006 102.134L120.309 107.559H136.047L126.779 124.871C126.786 124.87 126.794 124.87 126.801 124.869L121.028 135.684H121.008L117.711 141.897L115.28 146.451L115.291 146.457L101.598 172.26L103.397 150.35L103.436 150.353L105.461 125.386L105.708 122.348L106.191 116.74C106.191 116.74 97.3356 116.623 93.1241 116.401L94.8728 102.134C71.3768 103.372 54.6178 107.879 49.5011 113.606C54.9446 119.7 75.5447 124.424 101.184 125.289L100.326 135.861L96.6215 135.684C68.9803 134.228 48.2424 128.247 48.0889 121.079L48.0894 106.134C48.2434 98.9651 67.2316 92.9844 94.8728 91.5281L96.6215 77.9014H57.2655V58.2471H162.11Z" fill="url(#paint2_linear_1_2099)"/>
<defs>
<linearGradient id="paint0_linear_1_2099" x1="55.6083" y1="44.4326" x2="250.409" y2="192.894" gradientUnits="userSpaceOnUse">
<stop stop-color="#FF4C44"/>
<stop offset="0.208333" stop-color="#FECC35"/>
<stop offset="0.473958" stop-color="#65EF48"/>
<stop offset="0.729167" stop-color="#5859FF"/>
</linearGradient>
<linearGradient id="paint1_linear_1_2099" x1="43.7173" y1="249.872" x2="106.37" y2="388.763" gradientUnits="userSpaceOnUse">
<stop stop-color="#FF4C44"/>
<stop offset="0.208333" stop-color="#FECC35"/>
<stop offset="0.516555" stop-color="#65EF48"/>
<stop offset="0.953759" stop-color="#5859FF"/>
</linearGradient>
<linearGradient id="paint2_linear_1_2099" x1="79.1357" y1="81.2143" x2="182.892" y2="166.66" gradientUnits="userSpaceOnUse">
<stop stop-color="#FF4C44"/>
<stop offset="0.208333" stop-color="#FECC35"/>
<stop offset="0.473958" stop-color="#65EF48"/>
<stop offset="0.729167" stop-color="#5859FF"/>
</linearGradient>
</defs>
</svg>
