<svg width="567" height="569" viewBox="0 0 567 569" fill="none" xmlns="http://www.w3.org/2000/svg">
<path fill-rule="evenodd" clip-rule="evenodd" d="M226.445 325.218C226.45 321.644 231.579 321.072 232.371 324.557L274.925 511.945C275.649 515.133 273.169 518.147 269.906 517.962C260.53 517.431 251.303 516.348 242.254 514.747C232.759 513.067 226.217 504.555 226.229 494.912L226.445 325.218Z" fill="url(#paint0_linear_1_17)"/>
<path fill-rule="evenodd" clip-rule="evenodd" d="M272.069 320.796C270.49 316.296 276.694 313.305 279.231 317.344L377.908 474.469C384.162 484.428 380.532 497.684 369.593 502.003C364.172 504.143 358.653 506.086 353.044 507.826C345.187 510.263 337.001 505.774 334.277 498.013L272.069 320.796Z" fill="url(#paint1_linear_1_17)"/>
<path fill-rule="evenodd" clip-rule="evenodd" d="M311.626 292.491C308.652 288.762 313.527 283.894 317.252 286.873L463.307 403.698C471.457 410.217 473.293 421.97 466.774 430.12C463.318 434.439 459.713 438.634 455.966 442.697C448.885 450.374 436.762 449.408 430.25 441.243L311.626 292.491Z" fill="url(#paint2_linear_1_17)"/>
<path fill-rule="evenodd" clip-rule="evenodd" d="M339.742 253.938C335.698 251.407 338.685 245.196 343.187 246.773L502.733 302.671C511.021 305.575 516.321 313.797 514.879 322.461C513.412 331.266 511.454 339.906 509.037 348.351C507.611 353.329 501.803 355.412 497.413 352.664L339.742 253.938Z" fill="url(#paint3_linear_1_17)"/>
<path fill-rule="evenodd" clip-rule="evenodd" d="M316.132 123.069C313.983 124.105 312.152 121.185 314.02 119.702L369.967 75.2541C374.911 71.3265 381.648 70.4162 387.307 73.2164C390.806 74.9476 394.256 76.7635 397.653 78.6612C399.746 79.8301 399.623 82.8495 397.464 83.8898L316.132 123.069Z" fill="url(#paint4_linear_1_17)"/>
<path fill-rule="evenodd" clip-rule="evenodd" d="M344.636 206.265C341.149 205.467 341.734 200.333 345.312 200.341L486.414 200.651C496.375 200.673 505.402 206.813 508.254 216.356C510.501 223.877 512.381 231.557 513.876 239.373C514.41 242.166 511.883 244.546 509.111 243.911L344.636 206.265Z" fill="url(#paint5_linear_1_17)"/>
<path fill-rule="evenodd" clip-rule="evenodd" d="M286.519 94.0675C284.833 95.7548 282.141 93.6062 283.412 91.5881L301.999 62.0776C306.487 54.9519 314.666 50.9249 322.968 52.3359C323.21 52.377 323.451 52.4184 323.692 52.4602C325.275 52.7342 325.875 54.6727 324.74 55.8088L286.519 94.0675Z" fill="url(#paint6_linear_1_17)"/>
<path fill-rule="evenodd" clip-rule="evenodd" d="M331.582 161.889C329.211 162.151 328.455 158.789 330.71 158.011L440.584 120.087C445.633 118.344 451.261 119.602 454.906 123.506C460.419 129.409 465.629 135.599 470.515 142.047C471.905 143.88 470.747 146.503 468.46 146.755L331.582 161.889Z" fill="url(#paint7_linear_1_17)"/>
<path fill-rule="evenodd" clip-rule="evenodd" d="M245.855 82.6205C245.334 83.6933 243.71 83.1164 243.982 81.955L249.29 59.3108C250.435 54.4267 254.462 50.7259 259.453 50.2191V50.2191C260.441 50.1187 261.158 51.1422 260.723 52.036L245.855 82.6205Z" fill="url(#paint8_linear_1_17)"/>
<path fill-rule="evenodd" clip-rule="evenodd" d="M208.807 81.926C208.775 83.1185 207.058 83.2638 206.827 82.0936L204.005 67.8457C203.466 65.1242 204.657 62.5376 207.279 61.632V61.632C208.125 61.3401 209.343 61.8649 209.319 62.7587L208.807 81.926Z" fill="url(#paint9_linear_1_17)"/>
<path fill-rule="evenodd" clip-rule="evenodd" d="M146.643 295.246C148.132 293.383 151.046 295.224 150.004 297.369L94.1803 412.268C92.848 415.01 89.0688 415.307 87.39 412.762C84.3789 408.198 81.5234 403.523 78.8302 398.743C75.0178 391.978 75.9839 383.615 80.8335 377.55L146.643 295.246Z" fill="url(#paint10_linear_1_17)"/>
<path fill-rule="evenodd" clip-rule="evenodd" d="M181.651 321.58C182.842 318.205 187.877 319.374 187.46 322.928L169.115 479.123C168.615 483.383 163.94 485.749 160.29 483.496C155.576 480.585 150.973 477.512 146.489 474.285C137.392 467.739 134.288 455.841 138.016 445.271L181.651 321.58Z" fill="url(#paint11_linear_1_17)"/>
<path fill-rule="evenodd" clip-rule="evenodd" d="M112.433 271.68C114.46 270.427 116.586 273.132 114.89 274.805L59.4201 329.515C57.1806 331.724 53.4 330.6 52.8167 327.509C52.4771 325.709 52.1581 323.902 51.8598 322.088C50.6674 314.836 54.1952 307.701 60.445 303.836L112.433 271.68Z" fill="url(#paint12_linear_1_17)"/>
<path fill-rule="evenodd" clip-rule="evenodd" d="M88.2991 192.73C90.6678 193.014 90.6396 196.46 88.2666 196.705L69.2721 198.667C67.0437 198.897 65.363 196.694 66.2144 194.622C66.5257 193.864 66.8408 193.109 67.1596 192.355C67.6764 191.134 68.9424 190.409 70.2592 190.567L88.2991 192.73Z" fill="url(#paint13_linear_1_17)"/>
<path fill-rule="evenodd" clip-rule="evenodd" d="M93.1263 234.44C95.4565 233.928 96.5639 237.192 94.4037 238.204L53.2055 257.513C51.7964 258.173 50.2093 257.042 50.3948 255.497C50.8278 251.891 51.344 248.31 51.9378 244.755C52.0717 243.954 52.6821 243.316 53.4761 243.142L93.1263 234.44Z" fill="url(#paint14_linear_1_17)"/>
<defs>
<linearGradient id="paint0_linear_1_17" x1="87.0715" y1="283.031" x2="498.751" y2="283.031" gradientUnits="userSpaceOnUse">
<stop stop-color="#FF4C44"/>
<stop offset="0.208333" stop-color="#FECC35"/>
<stop offset="0.473958" stop-color="#65EF48"/>
<stop offset="0.729167" stop-color="#5859FF"/>
<stop offset="1" stop-color="#CF4CFD"/>
</linearGradient>
<linearGradient id="paint1_linear_1_17" x1="87.0715" y1="283.031" x2="498.751" y2="283.031" gradientUnits="userSpaceOnUse">
<stop stop-color="#FF4C44"/>
<stop offset="0.208333" stop-color="#FECC35"/>
<stop offset="0.473958" stop-color="#65EF48"/>
<stop offset="0.729167" stop-color="#5859FF"/>
<stop offset="1" stop-color="#CF4CFD"/>
</linearGradient>
<linearGradient id="paint2_linear_1_17" x1="87.0715" y1="283.031" x2="498.751" y2="283.031" gradientUnits="userSpaceOnUse">
<stop stop-color="#FF4C44"/>
<stop offset="0.208333" stop-color="#FECC35"/>
<stop offset="0.473958" stop-color="#65EF48"/>
<stop offset="0.729167" stop-color="#5859FF"/>
<stop offset="1" stop-color="#CF4CFD"/>
</linearGradient>
<linearGradient id="paint3_linear_1_17" x1="87.0715" y1="283.031" x2="498.751" y2="283.031" gradientUnits="userSpaceOnUse">
<stop stop-color="#FF4C44"/>
<stop offset="0.208333" stop-color="#FECC35"/>
<stop offset="0.473958" stop-color="#65EF48"/>
<stop offset="0.729167" stop-color="#5859FF"/>
<stop offset="1" stop-color="#CF4CFD"/>
</linearGradient>
<linearGradient id="paint4_linear_1_17" x1="87.0715" y1="283.031" x2="498.751" y2="283.031" gradientUnits="userSpaceOnUse">
<stop stop-color="#FF4C44"/>
<stop offset="0.208333" stop-color="#FECC35"/>
<stop offset="0.473958" stop-color="#65EF48"/>
<stop offset="0.729167" stop-color="#5859FF"/>
<stop offset="1" stop-color="#CF4CFD"/>
</linearGradient>
<linearGradient id="paint5_linear_1_17" x1="87.0715" y1="283.031" x2="498.751" y2="283.031" gradientUnits="userSpaceOnUse">
<stop stop-color="#FF4C44"/>
<stop offset="0.208333" stop-color="#FECC35"/>
<stop offset="0.473958" stop-color="#65EF48"/>
<stop offset="0.729167" stop-color="#5859FF"/>
<stop offset="1" stop-color="#CF4CFD"/>
</linearGradient>
<linearGradient id="paint6_linear_1_17" x1="87.0715" y1="283.031" x2="498.751" y2="283.031" gradientUnits="userSpaceOnUse">
<stop stop-color="#FF4C44"/>
<stop offset="0.208333" stop-color="#FECC35"/>
<stop offset="0.473958" stop-color="#65EF48"/>
<stop offset="0.729167" stop-color="#5859FF"/>
<stop offset="1" stop-color="#CF4CFD"/>
</linearGradient>
<linearGradient id="paint7_linear_1_17" x1="87.0715" y1="283.031" x2="498.751" y2="283.031" gradientUnits="userSpaceOnUse">
<stop stop-color="#FF4C44"/>
<stop offset="0.208333" stop-color="#FECC35"/>
<stop offset="0.473958" stop-color="#65EF48"/>
<stop offset="0.729167" stop-color="#5859FF"/>
<stop offset="1" stop-color="#CF4CFD"/>
</linearGradient>
<linearGradient id="paint8_linear_1_17" x1="87.0715" y1="283.031" x2="498.751" y2="283.031" gradientUnits="userSpaceOnUse">
<stop stop-color="#FF4C44"/>
<stop offset="0.208333" stop-color="#FECC35"/>
<stop offset="0.473958" stop-color="#65EF48"/>
<stop offset="0.729167" stop-color="#5859FF"/>
<stop offset="1" stop-color="#CF4CFD"/>
</linearGradient>
<linearGradient id="paint9_linear_1_17" x1="87.0715" y1="283.031" x2="498.751" y2="283.031" gradientUnits="userSpaceOnUse">
<stop stop-color="#FF4C44"/>
<stop offset="0.208333" stop-color="#FECC35"/>
<stop offset="0.473958" stop-color="#65EF48"/>
<stop offset="0.729167" stop-color="#5859FF"/>
<stop offset="1" stop-color="#CF4CFD"/>
</linearGradient>
<linearGradient id="paint10_linear_1_17" x1="87.0715" y1="283.031" x2="498.751" y2="283.031" gradientUnits="userSpaceOnUse">
<stop stop-color="#FF4C44"/>
<stop offset="0.208333" stop-color="#FECC35"/>
<stop offset="0.473958" stop-color="#65EF48"/>
<stop offset="0.729167" stop-color="#5859FF"/>
<stop offset="1" stop-color="#CF4CFD"/>
</linearGradient>
<linearGradient id="paint11_linear_1_17" x1="87.0715" y1="283.031" x2="498.751" y2="283.031" gradientUnits="userSpaceOnUse">
<stop stop-color="#FF4C44"/>
<stop offset="0.208333" stop-color="#FECC35"/>
<stop offset="0.473958" stop-color="#65EF48"/>
<stop offset="0.729167" stop-color="#5859FF"/>
<stop offset="1" stop-color="#CF4CFD"/>
</linearGradient>
<linearGradient id="paint12_linear_1_17" x1="87.0715" y1="283.031" x2="498.751" y2="283.031" gradientUnits="userSpaceOnUse">
<stop stop-color="#FF4C44"/>
<stop offset="0.208333" stop-color="#FECC35"/>
<stop offset="0.473958" stop-color="#65EF48"/>
<stop offset="0.729167" stop-color="#5859FF"/>
<stop offset="1" stop-color="#CF4CFD"/>
</linearGradient>
<linearGradient id="paint13_linear_1_17" x1="87.0715" y1="283.031" x2="498.751" y2="283.031" gradientUnits="userSpaceOnUse">
<stop stop-color="#FF4C44"/>
<stop offset="0.208333" stop-color="#FECC35"/>
<stop offset="0.473958" stop-color="#65EF48"/>
<stop offset="0.729167" stop-color="#5859FF"/>
<stop offset="1" stop-color="#CF4CFD"/>
</linearGradient>
<linearGradient id="paint14_linear_1_17" x1="87.0715" y1="283.031" x2="498.751" y2="283.031" gradientUnits="userSpaceOnUse">
<stop stop-color="#FF4C44"/>
<stop offset="0.208333" stop-color="#FECC35"/>
<stop offset="0.473958" stop-color="#65EF48"/>
<stop offset="0.729167" stop-color="#5859FF"/>
<stop offset="1" stop-color="#CF4CFD"/>
</linearGradient>
</defs>
</svg>
