<svg width="962" height="794" viewBox="0 0 962 794" fill="none" xmlns="http://www.w3.org/2000/svg">
<path fill-rule="evenodd" clip-rule="evenodd" d="M411.986 333.609C411.992 329.281 418.204 328.588 419.162 332.809L470.698 559.743C471.575 563.604 468.571 567.255 464.619 567.031C453.265 566.387 442.09 565.076 431.132 563.137C419.632 561.102 411.71 550.794 411.725 539.116L411.986 333.609Z" fill="url(#paint0_linear_1_8)"/>
<path fill-rule="evenodd" clip-rule="evenodd" d="M467.239 328.254C465.326 322.805 472.841 319.182 475.912 324.073L595.414 514.358C602.989 526.42 598.592 542.473 585.345 547.703C578.78 550.294 572.096 552.648 565.303 554.755C555.788 557.706 545.875 552.271 542.575 542.871L467.239 328.254Z" fill="url(#paint1_linear_1_8)"/>
<path fill-rule="evenodd" clip-rule="evenodd" d="M515.144 293.975C511.543 289.459 517.446 283.564 521.957 287.172L698.836 428.652C708.706 436.546 710.93 450.78 703.035 460.649C698.85 465.881 694.484 470.961 689.946 475.881C681.371 485.178 666.688 484.009 658.803 474.12L515.144 293.975Z" fill="url(#paint2_linear_1_8)"/>
<path fill-rule="evenodd" clip-rule="evenodd" d="M549.194 247.287C544.297 244.22 547.913 236.699 553.366 238.609L746.583 306.304C756.62 309.821 763.039 319.778 761.291 330.27C759.515 340.934 757.144 351.396 754.217 361.624C752.491 367.653 745.456 370.176 740.14 366.847L549.194 247.287Z" fill="url(#paint3_linear_1_8)"/>
<path fill-rule="evenodd" clip-rule="evenodd" d="M520.601 88.7988C517.998 90.0525 515.781 86.5172 518.043 84.7202L585.798 30.8924C591.785 26.1358 599.944 25.0335 606.797 28.4246C611.035 30.5211 615.212 32.7203 619.327 35.0185C621.861 36.4341 621.713 40.0907 619.097 41.3505L520.601 88.7988Z" fill="url(#paint4_linear_1_8)"/>
<path fill-rule="evenodd" clip-rule="evenodd" d="M555.12 189.552C550.897 188.586 551.607 182.368 555.939 182.378L726.82 182.753C738.883 182.779 749.815 190.215 753.269 201.773C755.99 210.882 758.267 220.182 760.077 229.648C760.724 233.03 757.664 235.912 754.307 235.143L555.12 189.552Z" fill="url(#paint5_linear_1_8)"/>
<path fill-rule="evenodd" clip-rule="evenodd" d="M484.738 53.6762C482.697 55.7196 479.436 53.1175 480.975 50.6736L503.486 14.9351C508.921 6.30558 518.825 1.42865 528.88 3.13749C529.172 3.18721 529.465 3.23738 529.757 3.28799C531.673 3.61985 532.4 5.96742 531.026 7.34327L484.738 53.6762Z" fill="url(#paint6_linear_1_8)"/>
<path fill-rule="evenodd" clip-rule="evenodd" d="M539.312 135.811C536.44 136.129 535.524 132.057 538.255 131.114L671.318 85.187C677.433 83.0766 684.247 84.5993 688.662 89.3269C695.338 96.4762 701.648 103.972 707.566 111.782C709.248 114.002 707.846 117.177 705.077 117.484L539.312 135.811Z" fill="url(#paint7_linear_1_8)"/>
<path fill-rule="evenodd" clip-rule="evenodd" d="M435.493 39.8133C434.862 41.1125 432.895 40.4139 433.225 39.0075L439.653 11.5844C441.04 5.66947 445.916 1.18768 451.96 0.573938V0.573938C453.157 0.452347 454.025 1.69181 453.499 2.77427L435.493 39.8133Z" fill="url(#paint8_linear_1_8)"/>
<path fill-rule="evenodd" clip-rule="evenodd" d="M390.626 38.9724C390.588 40.4165 388.508 40.5924 388.228 39.1753L384.81 21.9205C384.157 18.6247 385.6 15.4922 388.776 14.3954V14.3954C389.799 14.042 391.275 14.6775 391.246 15.7599L390.626 38.9724Z" fill="url(#paint9_linear_1_8)"/>
<path fill-rule="evenodd" clip-rule="evenodd" d="M315.342 297.312C317.146 295.056 320.675 297.285 319.412 299.883L251.808 439.03C250.195 442.351 245.618 442.711 243.585 439.629C239.938 434.102 236.48 428.439 233.219 422.651C228.602 414.458 229.772 404.331 235.645 396.986L315.342 297.312Z" fill="url(#paint10_linear_1_8)"/>
<path fill-rule="evenodd" clip-rule="evenodd" d="M357.739 329.204C359.181 325.117 365.279 326.532 364.773 330.836L342.557 519.995C341.952 525.153 336.29 528.019 331.87 525.29C326.161 521.765 320.587 518.044 315.156 514.136C304.139 506.208 300.38 491.799 304.895 478.999L357.739 329.204Z" fill="url(#paint11_linear_1_8)"/>
<path fill-rule="evenodd" clip-rule="evenodd" d="M273.913 268.773C276.368 267.255 278.943 270.531 276.888 272.557L209.712 338.814C207 341.489 202.422 340.127 201.715 336.383C201.304 334.204 200.918 332.015 200.556 329.818C199.112 321.037 203.385 312.396 210.953 307.715L273.913 268.773Z" fill="url(#paint12_linear_1_8)"/>
<path fill-rule="evenodd" clip-rule="evenodd" d="M244.686 173.16C247.554 173.504 247.52 177.677 244.646 177.974L221.643 180.351C218.945 180.629 216.909 177.961 217.94 175.452C218.317 174.534 218.699 173.619 219.085 172.707C219.711 171.228 221.244 170.35 222.839 170.541L244.686 173.16Z" fill="url(#paint13_linear_1_8)"/>
<path fill-rule="evenodd" clip-rule="evenodd" d="M250.532 223.673C253.354 223.053 254.695 227.006 252.079 228.232L202.186 251.615C200.479 252.415 198.558 251.045 198.782 249.174C199.306 244.807 199.932 240.47 200.651 236.166C200.813 235.195 201.552 234.423 202.514 234.211L250.532 223.673Z" fill="url(#paint14_linear_1_8)"/>
<path d="M32.832 713.278H71.5793C75.2382 713.278 77.8725 712.509 79.4824 710.973C81.0923 709.436 81.8973 707.533 81.8973 705.265V705.155C81.8973 703.033 81.0923 701.204 79.4824 699.667C77.9457 698.057 75.3113 697.252 71.5793 697.252H32.832V713.278ZM32.832 760.367H7.25664V678.702H73.116C79.9215 678.702 85.5927 679.25 90.1297 680.348C94.6667 681.446 98.2889 682.982 100.996 684.958C103.777 686.861 105.716 689.093 106.814 691.654C107.985 694.215 108.57 696.959 108.57 699.886V701.204C108.57 704.131 108.021 706.619 106.924 708.668C105.899 710.717 104.582 712.473 102.972 713.936C101.436 715.327 99.7891 716.424 98.0328 717.229C96.2766 718.034 94.7398 718.656 93.4227 719.095C95.4716 719.681 97.4474 720.486 99.35 721.51C101.253 722.535 102.899 723.852 104.289 725.462C105.68 726.998 106.777 728.791 107.582 730.84C108.461 732.889 108.9 735.231 108.9 737.865V749.83C108.9 753.123 109.046 755.464 109.339 756.855C109.705 758.172 110.07 759.16 110.436 759.818V760.367H84.4219C84.056 759.855 83.7633 759.233 83.5438 758.501C83.3242 757.769 83.2145 756.672 83.2145 755.208V745.768C83.2145 740.792 81.9339 737.17 79.3727 734.902C76.8846 732.56 72.494 731.389 66.2008 731.389H32.832V760.367ZM169.638 696.374L154.49 726.998H185.444L169.638 696.374ZM194.884 745.439H145.38L138.025 760.367H112.011L153.283 678.702H186.432L230.119 760.367H202.567L194.884 745.439ZM252.049 728.755L208.362 678.702H240.084L265.44 708.777L291.235 678.702H320.103L277.624 728.755V760.367H252.049V728.755ZM350.991 760.367L317.403 678.702H345.283L366.358 734.902L384.579 678.702H411.801L430.461 733.255L451.097 678.702H476.234L443.194 760.367H417.399L397.751 705.704L379.201 760.367H350.991ZM518.98 696.374L503.832 726.998H534.786L518.98 696.374ZM544.226 745.439H494.722L487.367 760.367H461.353L502.625 678.702H535.774L579.461 760.367H551.909L544.226 745.439ZM609.53 678.702V740.061H666.279V760.367H583.955V678.702H609.53ZM701.288 678.702V740.061H758.036V760.367H675.712V678.702H701.288ZM853.526 678.702V697.252H792.715V709.326H852.099V727.986H792.715V741.378H854.623V760.367H767.469V678.702H853.526ZM896.099 698.02H860.974V678.702H957.129V698.02H921.894V760.367H896.099V698.02Z" fill="white"/>
<defs>
<linearGradient id="paint0_linear_1_8" x1="243.199" y1="282.519" x2="741.761" y2="282.519" gradientUnits="userSpaceOnUse">
<stop stop-color="#FF4C44"/>
<stop offset="0.208333" stop-color="#FECC35"/>
<stop offset="0.473958" stop-color="#65EF48"/>
<stop offset="0.729167" stop-color="#5859FF"/>
<stop offset="1" stop-color="#CF4CFD"/>
</linearGradient>
<linearGradient id="paint1_linear_1_8" x1="243.199" y1="282.519" x2="741.761" y2="282.519" gradientUnits="userSpaceOnUse">
<stop stop-color="#FF4C44"/>
<stop offset="0.208333" stop-color="#FECC35"/>
<stop offset="0.473958" stop-color="#65EF48"/>
<stop offset="0.729167" stop-color="#5859FF"/>
<stop offset="1" stop-color="#CF4CFD"/>
</linearGradient>
<linearGradient id="paint2_linear_1_8" x1="243.199" y1="282.519" x2="741.761" y2="282.519" gradientUnits="userSpaceOnUse">
<stop stop-color="#FF4C44"/>
<stop offset="0.208333" stop-color="#FECC35"/>
<stop offset="0.473958" stop-color="#65EF48"/>
<stop offset="0.729167" stop-color="#5859FF"/>
<stop offset="1" stop-color="#CF4CFD"/>
</linearGradient>
<linearGradient id="paint3_linear_1_8" x1="243.199" y1="282.519" x2="741.761" y2="282.519" gradientUnits="userSpaceOnUse">
<stop stop-color="#FF4C44"/>
<stop offset="0.208333" stop-color="#FECC35"/>
<stop offset="0.473958" stop-color="#65EF48"/>
<stop offset="0.729167" stop-color="#5859FF"/>
<stop offset="1" stop-color="#CF4CFD"/>
</linearGradient>
<linearGradient id="paint4_linear_1_8" x1="243.199" y1="282.519" x2="741.761" y2="282.519" gradientUnits="userSpaceOnUse">
<stop stop-color="#FF4C44"/>
<stop offset="0.208333" stop-color="#FECC35"/>
<stop offset="0.473958" stop-color="#65EF48"/>
<stop offset="0.729167" stop-color="#5859FF"/>
<stop offset="1" stop-color="#CF4CFD"/>
</linearGradient>
<linearGradient id="paint5_linear_1_8" x1="243.199" y1="282.519" x2="741.761" y2="282.519" gradientUnits="userSpaceOnUse">
<stop stop-color="#FF4C44"/>
<stop offset="0.208333" stop-color="#FECC35"/>
<stop offset="0.473958" stop-color="#65EF48"/>
<stop offset="0.729167" stop-color="#5859FF"/>
<stop offset="1" stop-color="#CF4CFD"/>
</linearGradient>
<linearGradient id="paint6_linear_1_8" x1="243.199" y1="282.519" x2="741.761" y2="282.519" gradientUnits="userSpaceOnUse">
<stop stop-color="#FF4C44"/>
<stop offset="0.208333" stop-color="#FECC35"/>
<stop offset="0.473958" stop-color="#65EF48"/>
<stop offset="0.729167" stop-color="#5859FF"/>
<stop offset="1" stop-color="#CF4CFD"/>
</linearGradient>
<linearGradient id="paint7_linear_1_8" x1="243.199" y1="282.519" x2="741.761" y2="282.519" gradientUnits="userSpaceOnUse">
<stop stop-color="#FF4C44"/>
<stop offset="0.208333" stop-color="#FECC35"/>
<stop offset="0.473958" stop-color="#65EF48"/>
<stop offset="0.729167" stop-color="#5859FF"/>
<stop offset="1" stop-color="#CF4CFD"/>
</linearGradient>
<linearGradient id="paint8_linear_1_8" x1="243.199" y1="282.519" x2="741.761" y2="282.519" gradientUnits="userSpaceOnUse">
<stop stop-color="#FF4C44"/>
<stop offset="0.208333" stop-color="#FECC35"/>
<stop offset="0.473958" stop-color="#65EF48"/>
<stop offset="0.729167" stop-color="#5859FF"/>
<stop offset="1" stop-color="#CF4CFD"/>
</linearGradient>
<linearGradient id="paint9_linear_1_8" x1="243.199" y1="282.519" x2="741.761" y2="282.519" gradientUnits="userSpaceOnUse">
<stop stop-color="#FF4C44"/>
<stop offset="0.208333" stop-color="#FECC35"/>
<stop offset="0.473958" stop-color="#65EF48"/>
<stop offset="0.729167" stop-color="#5859FF"/>
<stop offset="1" stop-color="#CF4CFD"/>
</linearGradient>
<linearGradient id="paint10_linear_1_8" x1="243.199" y1="282.519" x2="741.761" y2="282.519" gradientUnits="userSpaceOnUse">
<stop stop-color="#FF4C44"/>
<stop offset="0.208333" stop-color="#FECC35"/>
<stop offset="0.473958" stop-color="#65EF48"/>
<stop offset="0.729167" stop-color="#5859FF"/>
<stop offset="1" stop-color="#CF4CFD"/>
</linearGradient>
<linearGradient id="paint11_linear_1_8" x1="243.199" y1="282.519" x2="741.761" y2="282.519" gradientUnits="userSpaceOnUse">
<stop stop-color="#FF4C44"/>
<stop offset="0.208333" stop-color="#FECC35"/>
<stop offset="0.473958" stop-color="#65EF48"/>
<stop offset="0.729167" stop-color="#5859FF"/>
<stop offset="1" stop-color="#CF4CFD"/>
</linearGradient>
<linearGradient id="paint12_linear_1_8" x1="243.199" y1="282.519" x2="741.761" y2="282.519" gradientUnits="userSpaceOnUse">
<stop stop-color="#FF4C44"/>
<stop offset="0.208333" stop-color="#FECC35"/>
<stop offset="0.473958" stop-color="#65EF48"/>
<stop offset="0.729167" stop-color="#5859FF"/>
<stop offset="1" stop-color="#CF4CFD"/>
</linearGradient>
<linearGradient id="paint13_linear_1_8" x1="243.199" y1="282.519" x2="741.761" y2="282.519" gradientUnits="userSpaceOnUse">
<stop stop-color="#FF4C44"/>
<stop offset="0.208333" stop-color="#FECC35"/>
<stop offset="0.473958" stop-color="#65EF48"/>
<stop offset="0.729167" stop-color="#5859FF"/>
<stop offset="1" stop-color="#CF4CFD"/>
</linearGradient>
<linearGradient id="paint14_linear_1_8" x1="243.199" y1="282.519" x2="741.761" y2="282.519" gradientUnits="userSpaceOnUse">
<stop stop-color="#FF4C44"/>
<stop offset="0.208333" stop-color="#FECC35"/>
<stop offset="0.473958" stop-color="#65EF48"/>
<stop offset="0.729167" stop-color="#5859FF"/>
<stop offset="1" stop-color="#CF4CFD"/>
</linearGradient>
</defs>
</svg>
