<svg width="342" height="722" viewBox="0 0 342 722" fill="none" xmlns="http://www.w3.org/2000/svg">
<g clip-path="url(#clip0_19_895)">
<rect x="7.44531" y="7" width="327.064" height="707.722" rx="27.4843" fill="#010101"/>
<rect width="327" height="709.424" transform="translate(7.03125 36.7349)" fill="black"/>
<rect x="22.5498" y="81.0739" width="296.517" height="29.3746" rx="13.8559" fill="#141415"/>
<rect x="7.03125" y="36.7349" width="327" height="38.368" fill="black"/>
<rect opacity="0.35" x="300.459" y="52.2852" width="18.312" height="9.01067" rx="1.88933" stroke="white" stroke-width="0.872"/>
<rect x="301.768" y="53.5933" width="15.696" height="6.39467" rx="1.16267" fill="white"/>
<path fill-rule="evenodd" clip-rule="evenodd" d="M288.976 53.833C290.908 53.8331 292.766 54.5755 294.167 55.9069C294.272 56.0097 294.441 56.0084 294.544 55.904L295.552 54.8867C295.605 54.8337 295.634 54.762 295.634 54.6874C295.633 54.6127 295.603 54.5414 295.55 54.489C291.875 50.9665 286.076 50.9665 282.4 54.489C282.347 54.5413 282.317 54.6127 282.316 54.6873C282.316 54.7619 282.345 54.8337 282.398 54.8867L283.406 55.904C283.51 56.0086 283.679 56.0098 283.784 55.9069C285.184 54.5754 287.043 53.833 288.976 53.833ZM288.975 57.1428C290.037 57.1427 291.061 57.5373 291.847 58.2499C291.954 58.3511 292.122 58.3489 292.225 58.245L293.232 57.2277C293.285 57.1743 293.315 57.1019 293.314 57.0267C293.313 56.9515 293.282 56.8797 293.228 56.8274C290.832 54.5983 287.121 54.5983 284.724 56.8274C284.67 56.8797 284.639 56.9515 284.638 57.0267C284.638 57.102 284.667 57.1744 284.72 57.2277L285.727 58.245C285.831 58.3489 285.998 58.3511 286.105 58.2499C286.891 57.5378 287.914 57.1432 288.975 57.1428ZM290.992 59.3697C290.994 59.4451 290.964 59.5179 290.91 59.5707L289.169 61.3284C289.118 61.38 289.048 61.4091 288.975 61.4091C288.903 61.4091 288.833 61.38 288.782 61.3284L287.04 59.5707C286.986 59.5178 286.957 59.4451 286.958 59.3696C286.96 59.2942 286.992 59.2228 287.048 59.1722C288.161 58.2314 289.79 58.2314 290.902 59.1722C290.958 59.2228 290.991 59.2943 290.992 59.3697Z" fill="white"/>
<path fill-rule="evenodd" clip-rule="evenodd" d="M277.06 52.1405H276.188C275.707 52.1405 275.316 52.5309 275.316 53.0125V60.5698C275.316 61.0514 275.707 61.4418 276.188 61.4418H277.06C277.542 61.4418 277.932 61.0514 277.932 60.5698V53.0125C277.932 52.5309 277.542 52.1405 277.06 52.1405ZM272.119 54.1753H272.991C273.472 54.1753 273.863 54.5657 273.863 55.0473V60.57C273.863 61.0516 273.472 61.442 272.991 61.442H272.119C271.637 61.442 271.247 61.0516 271.247 60.57V55.0473C271.247 54.5657 271.637 54.1753 272.119 54.1753ZM268.922 56.2097H268.05C267.568 56.2097 267.178 56.6001 267.178 57.0817V60.5697C267.178 61.0513 267.568 61.4417 268.05 61.4417H268.922C269.404 61.4417 269.794 61.0513 269.794 60.5697V57.0817C269.794 56.6001 269.404 56.2097 268.922 56.2097ZM264.852 57.9538H263.98C263.499 57.9538 263.108 58.3442 263.108 58.8258V60.5698C263.108 61.0514 263.499 61.4418 263.98 61.4418H264.852C265.334 61.4418 265.724 61.0514 265.724 60.5698V58.8258C265.724 58.3442 265.334 57.9538 264.852 57.9538Z" fill="white"/>
<path d="M40.1099 53.8707C41.9459 53.8707 43.5434 55.1761 43.5434 58.2758V58.2877C43.5434 61.1847 42.238 62.9015 40.0741 62.9015C38.4945 62.9015 37.3142 61.9656 37.04 60.6482L37.0281 60.5827H38.5422L38.5601 60.6423C38.7866 61.2443 39.3171 61.6378 40.0741 61.6378C41.4392 61.6378 42.0174 60.3025 42.083 58.6573C42.083 58.5917 42.0889 58.5262 42.0889 58.4606H41.9697C41.6538 59.1401 40.9027 59.7422 39.7225 59.7422C38.0713 59.7422 36.9148 58.5381 36.9148 56.9048V56.8929C36.9148 55.1463 38.2441 53.8707 40.1099 53.8707ZM40.104 58.5619C41.0756 58.5619 41.8207 57.8585 41.8207 56.8869V56.875C41.8207 55.8914 41.0756 55.1225 40.1218 55.1225C39.174 55.1225 38.417 55.8795 38.417 56.8392V56.8511C38.417 57.8466 39.1264 58.5619 40.104 58.5619ZM46.0055 57.1134C45.4631 57.1134 45.0577 56.6961 45.0577 56.1716C45.0577 55.6411 45.4631 55.2298 46.0055 55.2298C46.5539 55.2298 46.9533 55.6411 46.9533 56.1716C46.9533 56.6961 46.5539 57.1134 46.0055 57.1134ZM46.0055 61.5364C45.4631 61.5364 45.0577 61.1251 45.0577 60.5946C45.0577 60.0641 45.4631 59.6528 46.0055 59.6528C46.5539 59.6528 46.9533 60.0641 46.9533 60.5946C46.9533 61.1251 46.5539 61.5364 46.0055 61.5364ZM52.6403 62.6869V61.0357H48.4319V59.778C49.5466 57.8406 50.7685 55.8616 51.9369 54.0853H54.1126V59.766H55.2691V61.0357H54.1126V62.6869H52.6403ZM49.8625 59.8018H52.6641V55.3132H52.5747C51.6925 56.6604 50.697 58.252 49.8625 59.7124V59.8018ZM58.5895 62.6869V55.5993H58.4882L56.3482 57.1134V55.6649L58.5955 54.0853H60.1275V62.6869H58.5895Z" fill="white"/>
<g filter="url(#filter0_d_19_895)">
<path d="M7.03125 107.677C7.03125 98.4944 14.4755 91.0502 23.6584 91.0502H317.404C326.587 91.0502 334.031 98.4944 334.031 107.677V746.159H7.03125V107.677Z" fill="#1C1C1E" shape-rendering="crispEdges"/>
<path d="M7.03125 107.677C7.03125 98.4944 14.4755 91.0502 23.6584 91.0502H317.404C326.587 91.0502 334.031 98.4944 334.031 107.677V746.159H7.03125V107.677Z" fill="black" shape-rendering="crispEdges"/>
<path d="M22.843 160.389V142.035H30.1693C31.4752 142.035 32.5987 142.268 33.54 142.735C34.4812 143.193 35.2062 143.85 35.715 144.706C36.2237 145.563 36.4781 146.58 36.4781 147.759V147.784C36.4781 149.014 36.1686 150.099 35.5496 151.04C34.9306 151.973 34.0869 152.63 33.0185 153.012L37.025 160.389H33.2856L29.6733 153.508C29.6478 153.508 29.6224 153.508 29.597 153.508C29.5715 153.508 29.5419 153.508 29.5079 153.508H26.1119V160.389H22.843ZM26.1119 150.939H29.8386C30.8731 150.939 31.6787 150.663 32.2553 150.112C32.8319 149.561 33.1202 148.793 33.1202 147.81V147.784C33.1202 146.826 32.8192 146.071 32.2171 145.52C31.6151 144.961 30.7968 144.681 29.7623 144.681H26.1119V150.939ZM45.5271 160.656C44.1789 160.656 43.0172 160.372 42.0421 159.804C41.0754 159.236 40.3292 158.43 39.8035 157.387C39.2862 156.336 39.0276 155.094 39.0276 153.661V153.648C39.0276 152.232 39.2904 150.994 39.8162 149.934C40.3419 148.874 41.0796 148.056 42.0293 147.479C42.979 146.894 44.0983 146.601 45.3872 146.601C46.6676 146.601 47.7742 146.885 48.707 147.454C49.6482 148.013 50.3732 148.802 50.882 149.819C51.3907 150.837 51.6451 152.024 51.6451 153.381V154.411H40.5921V152.287H50.1188L48.6052 154.271V153.037C48.6052 152.156 48.4695 151.422 48.1982 150.837C47.9269 150.243 47.5495 149.802 47.0662 149.514C46.5913 149.217 46.0402 149.069 45.4127 149.069C44.7937 149.069 44.2383 149.222 43.7464 149.527C43.2546 149.832 42.8688 150.282 42.589 150.875C42.3092 151.469 42.1692 152.189 42.1692 153.037V154.271C42.1692 155.094 42.3092 155.797 42.589 156.383C42.8688 156.968 43.2631 157.417 43.7719 157.731C44.2891 158.036 44.8954 158.189 45.5907 158.189C46.125 158.189 46.5913 158.108 46.9899 157.947C47.3884 157.777 47.7149 157.565 47.9693 157.311C48.2321 157.048 48.4144 156.768 48.5162 156.472L48.5416 156.383H51.5052L51.4798 156.51C51.3695 157.027 51.1618 157.532 50.8565 158.023C50.5598 158.515 50.1612 158.96 49.6609 159.359C49.1691 159.757 48.5798 160.075 47.8929 160.313C47.2061 160.542 46.4175 160.656 45.5271 160.656ZM63.8486 164.854V158.163H63.7722C63.5263 158.672 63.1956 159.113 62.7801 159.486C62.3731 159.851 61.894 160.135 61.3428 160.338C60.8002 160.542 60.2024 160.644 59.5494 160.644C58.4216 160.644 57.438 160.359 56.5985 159.791C55.7675 159.223 55.1231 158.413 54.6652 157.362C54.2158 156.311 53.9911 155.064 53.9911 153.622V153.61C53.9911 152.16 54.22 150.913 54.6779 149.87C55.1443 148.827 55.7972 148.026 56.6367 147.466C57.4762 146.898 58.4683 146.614 59.613 146.614C60.249 146.614 60.8298 146.72 61.3556 146.932C61.8898 147.144 62.3604 147.445 62.7674 147.835C63.1829 148.217 63.5179 148.67 63.7722 149.196H63.8486V146.869H67.0157V164.854H63.8486ZM60.5415 157.972C61.2114 157.972 61.7923 157.794 62.2841 157.438C62.7844 157.082 63.1702 156.578 63.4415 155.925C63.7214 155.272 63.8613 154.504 63.8613 153.622V153.61C63.8613 152.728 63.7214 151.965 63.4415 151.32C63.1617 150.667 62.7717 150.167 62.2714 149.819C61.7795 149.463 61.2029 149.285 60.5415 149.285C59.8632 149.285 59.2738 149.463 58.7735 149.819C58.2733 150.167 57.8874 150.663 57.6161 151.308C57.3447 151.952 57.2091 152.719 57.2091 153.61V153.622C57.2091 154.521 57.3447 155.297 57.6161 155.95C57.8874 156.595 58.2733 157.095 58.7735 157.451C59.2738 157.799 59.8632 157.972 60.5415 157.972ZM75.0853 160.656C74.0932 160.656 73.2495 160.457 72.5542 160.058C71.8588 159.651 71.3289 159.071 70.9642 158.316C70.6081 157.561 70.43 156.662 70.43 155.619V146.869H73.5844V154.971C73.5844 155.937 73.8091 156.684 74.2585 157.209C74.708 157.735 75.3863 157.998 76.2936 157.998C76.7515 157.998 77.1628 157.922 77.5274 157.769C77.9005 157.608 78.2185 157.383 78.4814 157.095C78.7442 156.807 78.9435 156.459 79.0792 156.052C79.2233 155.645 79.2954 155.195 79.2954 154.704V146.869H82.4498V160.389H79.2954V158.278H79.2064C78.9774 158.753 78.6721 159.172 78.2906 159.537C77.909 159.893 77.4511 160.169 76.9169 160.364C76.3827 160.559 75.7721 160.656 75.0853 160.656ZM91.855 160.656C90.5067 160.656 89.345 160.372 88.3699 159.804C87.4032 159.236 86.657 158.43 86.1313 157.387C85.614 156.336 85.3554 155.094 85.3554 153.661V153.648C85.3554 152.232 85.6182 150.994 86.144 149.934C86.6697 148.874 87.4074 148.056 88.3571 147.479C89.3069 146.894 90.4262 146.601 91.715 146.601C92.9955 146.601 94.102 146.885 95.0348 147.454C95.976 148.013 96.701 148.802 97.2098 149.819C97.7186 150.837 97.9729 152.024 97.9729 153.381V154.411H86.9199V152.287H96.4466L94.933 154.271V153.037C94.933 152.156 94.7974 151.422 94.526 150.837C94.2547 150.243 93.8773 149.802 93.394 149.514C92.9191 149.217 92.368 149.069 91.7405 149.069C91.1215 149.069 90.5661 149.222 90.0742 149.527C89.5824 149.832 89.1966 150.282 88.9168 150.875C88.637 151.469 88.4971 152.189 88.4971 153.037V154.271C88.4971 155.094 88.637 155.797 88.9168 156.383C89.1966 156.968 89.5909 157.417 90.0997 157.731C90.6169 158.036 91.2232 158.189 91.9185 158.189C92.4528 158.189 92.9191 158.108 93.3177 157.947C93.7162 157.777 94.0427 157.565 94.2971 157.311C94.5599 157.048 94.7422 156.768 94.844 156.472L94.8694 156.383H97.833L97.8076 156.51C97.6974 157.027 97.4896 157.532 97.1843 158.023C96.8876 158.515 96.489 158.96 95.9887 159.359C95.4969 159.757 94.9076 160.075 94.2207 160.313C93.5339 160.542 92.7453 160.656 91.855 160.656ZM106.144 160.656C104.974 160.656 103.969 160.482 103.13 160.135C102.29 159.787 101.633 159.3 101.158 158.672C100.684 158.045 100.399 157.315 100.306 156.484L100.293 156.383H103.397L103.422 156.497C103.558 157.065 103.846 157.51 104.287 157.833C104.737 158.155 105.36 158.316 106.157 158.316C106.674 158.316 107.119 158.252 107.493 158.125C107.866 157.989 108.15 157.803 108.345 157.565C108.548 157.32 108.65 157.027 108.65 156.688V156.675C108.65 156.268 108.51 155.942 108.23 155.696C107.95 155.45 107.459 155.242 106.755 155.072L104.516 154.576C103.66 154.39 102.943 154.127 102.367 153.788C101.79 153.44 101.358 153.016 101.069 152.516C100.781 152.007 100.637 151.418 100.637 150.748V150.735C100.637 149.904 100.862 149.179 101.311 148.56C101.76 147.941 102.392 147.462 103.206 147.123C104.02 146.775 104.97 146.601 106.055 146.601C107.175 146.601 108.133 146.788 108.93 147.161C109.727 147.526 110.346 148.022 110.787 148.649C111.228 149.268 111.465 149.964 111.499 150.735L111.512 150.875H108.561L108.548 150.773C108.48 150.239 108.23 149.798 107.798 149.451C107.374 149.103 106.793 148.929 106.055 148.929C105.589 148.929 105.182 148.997 104.834 149.133C104.495 149.268 104.232 149.459 104.046 149.705C103.859 149.951 103.766 150.239 103.766 150.57V150.583C103.766 150.845 103.829 151.079 103.957 151.282C104.084 151.486 104.287 151.664 104.567 151.816C104.855 151.96 105.233 152.088 105.699 152.198L107.938 152.694C109.337 153.008 110.333 153.457 110.927 154.042C111.529 154.619 111.83 155.399 111.83 156.383V156.395C111.83 157.243 111.584 157.989 111.092 158.634C110.609 159.27 109.939 159.766 109.083 160.122C108.235 160.478 107.255 160.656 106.144 160.656ZM119.785 160.644C118.369 160.644 117.317 160.338 116.631 159.728C115.944 159.117 115.6 158.121 115.6 156.739V149.311H113.68V146.869H115.6V143.447H118.818V146.869H121.362V149.311H118.818V156.433C118.818 157.095 118.963 157.553 119.251 157.807C119.548 158.062 119.984 158.189 120.561 158.189C120.722 158.189 120.866 158.184 120.993 158.176C121.129 158.159 121.252 158.146 121.362 158.138V160.516C121.176 160.55 120.947 160.58 120.675 160.605C120.404 160.631 120.107 160.644 119.785 160.644ZM130.544 164.854V146.869H133.711V149.183H133.787C134.05 148.649 134.385 148.191 134.792 147.81C135.199 147.42 135.67 147.123 136.204 146.919C136.747 146.707 137.336 146.601 137.972 146.601C139.117 146.601 140.109 146.885 140.948 147.454C141.788 148.013 142.432 148.819 142.882 149.87C143.34 150.922 143.569 152.172 143.569 153.622V153.635C143.569 155.085 143.34 156.336 142.882 157.387C142.432 158.43 141.792 159.236 140.961 159.804C140.13 160.372 139.147 160.656 138.01 160.656C137.374 160.656 136.781 160.555 136.23 160.351C135.687 160.147 135.208 159.855 134.792 159.473C134.385 159.092 134.05 158.638 133.787 158.112H133.711V164.854H130.544ZM137.031 157.985C137.718 157.985 138.307 157.811 138.799 157.464C139.299 157.108 139.681 156.603 139.944 155.95C140.215 155.297 140.351 154.526 140.351 153.635V153.622C140.351 152.715 140.215 151.939 139.944 151.295C139.672 150.642 139.286 150.142 138.786 149.794C138.294 149.446 137.709 149.272 137.031 149.272C136.378 149.272 135.797 149.451 135.288 149.807C134.788 150.163 134.394 150.667 134.105 151.32C133.826 151.965 133.686 152.732 133.686 153.622V153.635C133.686 154.526 133.826 155.297 134.105 155.95C134.394 156.595 134.788 157.095 135.288 157.451C135.789 157.807 136.37 157.985 137.031 157.985ZM150.455 160.618C149.565 160.618 148.781 160.449 148.102 160.109C147.424 159.762 146.894 159.283 146.512 158.672C146.131 158.053 145.94 157.341 145.94 156.535V156.51C145.94 155.713 146.139 155.026 146.538 154.449C146.945 153.864 147.53 153.406 148.293 153.076C149.056 152.736 149.981 152.537 151.066 152.478L156.23 152.16V154.246L151.524 154.551C150.735 154.593 150.133 154.776 149.718 155.098C149.302 155.42 149.094 155.853 149.094 156.395V156.408C149.094 156.968 149.302 157.409 149.718 157.731C150.142 158.045 150.701 158.201 151.397 158.201C152.007 158.201 152.554 158.078 153.037 157.833C153.521 157.587 153.902 157.252 154.182 156.828C154.462 156.395 154.602 155.912 154.602 155.378V151.308C154.602 150.621 154.386 150.087 153.953 149.705C153.529 149.315 152.914 149.12 152.109 149.12C151.363 149.12 150.761 149.277 150.303 149.59C149.853 149.896 149.574 150.294 149.463 150.786L149.438 150.901H146.5L146.512 150.761C146.589 149.955 146.86 149.243 147.326 148.624C147.801 147.996 148.45 147.504 149.272 147.148C150.103 146.784 151.087 146.601 152.223 146.601C153.351 146.601 154.326 146.788 155.149 147.161C155.98 147.526 156.62 148.047 157.069 148.726C157.527 149.395 157.756 150.184 157.756 151.091V160.389H154.602V158.329H154.526C154.263 158.795 153.928 159.202 153.521 159.55C153.114 159.889 152.652 160.152 152.134 160.338C151.617 160.525 151.057 160.618 150.455 160.618ZM162.913 164.905C162.625 164.905 162.337 164.888 162.048 164.854C161.76 164.828 161.518 164.803 161.323 164.777V162.361C161.442 162.378 161.59 162.399 161.768 162.424C161.947 162.45 162.146 162.462 162.366 162.462C162.977 162.462 163.464 162.352 163.829 162.132C164.194 161.92 164.473 161.53 164.668 160.962L164.872 160.402L160 146.869H163.46L166.831 158.392L166.322 157.667H167.034L166.513 158.392L169.896 146.869H173.229L168.37 160.834C168.022 161.835 167.602 162.632 167.111 163.226C166.627 163.819 166.042 164.247 165.355 164.51C164.677 164.773 163.863 164.905 162.913 164.905ZM175.6 160.389V146.869H178.767V149.031H178.843C179.132 148.293 179.607 147.704 180.268 147.263C180.929 146.822 181.705 146.601 182.596 146.601C183.223 146.601 183.787 146.707 184.287 146.919C184.788 147.131 185.212 147.437 185.559 147.835C185.915 148.234 186.178 148.721 186.348 149.298H186.424C186.645 148.738 186.958 148.259 187.365 147.861C187.781 147.454 188.264 147.144 188.815 146.932C189.375 146.712 189.977 146.601 190.621 146.601C191.512 146.601 192.288 146.788 192.949 147.161C193.61 147.534 194.124 148.06 194.488 148.738C194.853 149.408 195.035 150.197 195.035 151.104V160.389H191.881V151.893C191.881 151.325 191.783 150.845 191.588 150.455C191.402 150.065 191.13 149.769 190.774 149.565C190.418 149.362 189.977 149.26 189.451 149.26C188.934 149.26 188.48 149.378 188.09 149.616C187.7 149.853 187.395 150.18 187.175 150.595C186.963 151.011 186.857 151.49 186.857 152.033V160.389H183.778V151.715C183.778 151.206 183.681 150.769 183.486 150.404C183.291 150.04 183.015 149.76 182.659 149.565C182.303 149.362 181.875 149.26 181.375 149.26C180.866 149.26 180.416 149.387 180.026 149.641C179.636 149.887 179.327 150.222 179.098 150.646C178.877 151.07 178.767 151.562 178.767 152.122V160.389H175.6ZM204.389 160.656C203.041 160.656 201.879 160.372 200.904 159.804C199.938 159.236 199.191 158.43 198.666 157.387C198.148 156.336 197.89 155.094 197.89 153.661V153.648C197.89 152.232 198.153 150.994 198.678 149.934C199.204 148.874 199.942 148.056 200.892 147.479C201.841 146.894 202.961 146.601 204.249 146.601C205.53 146.601 206.636 146.885 207.569 147.454C208.51 148.013 209.235 148.802 209.744 149.819C210.253 150.837 210.507 152.024 210.507 153.381V154.411H199.454V152.287H208.981L207.467 154.271V153.037C207.467 152.156 207.332 151.422 207.06 150.837C206.789 150.243 206.412 149.802 205.928 149.514C205.454 149.217 204.902 149.069 204.275 149.069C203.656 149.069 203.1 149.222 202.609 149.527C202.117 149.832 201.731 150.282 201.451 150.875C201.171 151.469 201.031 152.189 201.031 153.037V154.271C201.031 155.094 201.171 155.797 201.451 156.383C201.731 156.968 202.125 157.417 202.634 157.731C203.151 158.036 203.758 158.189 204.453 158.189C204.987 158.189 205.454 158.108 205.852 157.947C206.251 157.777 206.577 157.565 206.831 157.311C207.094 157.048 207.277 156.768 207.378 156.472L207.404 156.383H210.367L210.342 156.51C210.232 157.027 210.024 157.532 209.719 158.023C209.422 158.515 209.023 158.96 208.523 159.359C208.031 159.757 207.442 160.075 206.755 160.313C206.068 160.542 205.28 160.656 204.389 160.656ZM213.413 160.389V146.869H216.58V148.98H216.656C217.012 148.251 217.534 147.674 218.221 147.25C218.908 146.818 219.76 146.601 220.777 146.601C222.261 146.601 223.41 147.051 224.224 147.95C225.038 148.84 225.445 150.07 225.445 151.638V160.389H222.278V152.287C222.278 151.312 222.054 150.566 221.604 150.048C221.155 149.523 220.476 149.26 219.569 149.26C218.959 149.26 218.429 149.4 217.979 149.679C217.538 149.951 217.195 150.332 216.949 150.824C216.703 151.316 216.58 151.888 216.58 152.541V160.389H213.413ZM233.897 160.644C232.481 160.644 231.429 160.338 230.742 159.728C230.055 159.117 229.712 158.121 229.712 156.739V149.311H227.791V146.869H229.712V143.447H232.93V146.869H235.474V149.311H232.93V156.433C232.93 157.095 233.074 157.553 233.362 157.807C233.659 158.062 234.096 158.189 234.673 158.189C234.834 158.189 234.978 158.184 235.105 158.176C235.241 158.159 235.364 158.146 235.474 158.138V160.516C235.287 160.55 235.058 160.58 234.787 160.605C234.516 160.631 234.219 160.644 233.897 160.644Z" fill="white"/>
<g clip-path="url(#clip1_19_895)">
<path d="M22.2725 213.499C22.2725 204.317 29.7167 196.872 38.8996 196.872H302.162C311.345 196.872 318.789 204.317 318.789 213.499V683.174C318.789 692.357 311.345 699.801 302.162 699.801H38.8996C29.7167 699.801 22.2725 692.357 22.2725 683.174V213.499Z" fill="url(#paint0_linear_19_895)"/>
<rect x="-3.49902" y="176.92" width="148.536" height="148.536" rx="74.2678" fill="white" fill-opacity="0.25"/>
<path d="M70.7683 291.093C69.7451 291.093 68.8793 290.738 68.1709 290.03C67.4626 289.243 67.1084 288.338 67.1084 287.315V218.72H44.7946C43.7714 218.72 42.8662 218.366 42.0792 217.658C41.3708 216.949 41.0166 216.084 41.0166 215.06C41.0166 214.037 41.3708 213.171 42.0792 212.463C42.8662 211.676 43.7714 211.282 44.7946 211.282H96.8601C97.8833 211.282 98.7491 211.637 99.4575 212.345C100.166 213.053 100.52 213.959 100.52 215.06C100.52 216.084 100.166 216.949 99.4575 217.658C98.7491 218.366 97.8833 218.72 96.8601 218.72H74.5463V287.315C74.5463 288.338 74.1528 289.243 73.3657 290.03C72.6573 290.738 71.7915 291.093 70.7683 291.093Z" fill="#4ACBE8"/>
<path d="M49.329 256.109C48.7099 254.651 49.3903 252.967 50.8486 252.348L88.5857 236.33C90.0439 235.711 91.7279 236.391 92.3469 237.849C92.9659 239.308 92.2856 240.992 90.8273 241.611L53.0902 257.629C51.6319 258.248 49.948 257.568 49.329 256.109Z" fill="#4ACBE8"/>
<path d="M49.7805 274.39C49.1615 272.932 49.8419 271.248 51.3002 270.629L89.0372 254.611C90.4955 253.992 92.1795 254.672 92.7985 256.13C93.4175 257.588 92.7371 259.272 91.2789 259.891L53.5418 275.91C52.0835 276.529 50.3995 275.848 49.7805 274.39Z" fill="#4ACBE8"/>
<path d="M40.6016 235.271V220.822H42.404V233.648H49.3731V235.271H40.6016ZM52.4215 235.271V224.597H54.1637V235.271H52.4215ZM53.3026 222.614C52.9822 222.614 52.7052 222.5 52.4715 222.274C52.2446 222.04 52.1311 221.763 52.1311 221.442C52.1311 221.115 52.2446 220.842 52.4715 220.621C52.7052 220.394 52.9822 220.281 53.3026 220.281C53.623 220.281 53.8967 220.394 54.1237 220.621C54.3507 220.842 54.4641 221.115 54.4641 221.442C54.4641 221.763 54.3507 222.04 54.1237 222.274C53.8967 222.5 53.623 222.614 53.3026 222.614ZM62.2187 239.045C61.3509 239.045 60.5932 238.922 59.9457 238.675C59.3049 238.435 58.7909 238.094 58.4037 237.654C58.0165 237.22 57.7762 236.722 57.6827 236.162V236.122H59.4751L59.4951 236.162C59.6086 236.556 59.899 236.876 60.3662 237.123C60.8402 237.377 61.4543 237.503 62.2087 237.503C63.1566 237.503 63.8942 237.28 64.4215 236.833C64.9556 236.385 65.2226 235.761 65.2226 234.96V233.048H65.1024C64.8821 233.435 64.6018 233.769 64.2613 234.049C63.9276 234.329 63.5471 234.543 63.1198 234.69C62.6993 234.837 62.2387 234.91 61.738 234.91C60.8302 234.91 60.0392 234.69 59.3649 234.249C58.6907 233.802 58.17 233.184 57.8029 232.397C57.4358 231.609 57.2522 230.701 57.2522 229.673V229.653C57.2522 228.625 57.4358 227.717 57.8029 226.93C58.1767 226.142 58.7007 225.524 59.375 225.077C60.0558 224.623 60.8569 224.396 61.7781 224.396C62.2854 224.396 62.7494 224.48 63.1699 224.647C63.5905 224.807 63.9643 225.034 64.2914 225.328C64.6251 225.621 64.9022 225.968 65.1225 226.369H65.2126V224.597H66.9549V235.08C66.9549 235.881 66.7613 236.579 66.3741 237.173C65.9936 237.767 65.4462 238.228 64.732 238.555C64.0244 238.882 63.1866 239.045 62.2187 239.045ZM62.1185 233.368C62.766 233.368 63.3234 233.214 63.7907 232.907C64.258 232.594 64.6185 232.16 64.8721 231.606C65.1258 231.045 65.2526 230.401 65.2526 229.673V229.653C65.2526 228.926 65.1258 228.281 64.8721 227.721C64.6185 227.16 64.258 226.723 63.7907 226.409C63.3234 226.095 62.766 225.938 62.1185 225.938C61.471 225.938 60.917 226.095 60.4564 226.409C59.9958 226.723 59.642 227.16 59.395 227.721C59.1547 228.275 59.0345 228.919 59.0345 229.653V229.673C59.0345 230.407 59.1547 231.052 59.395 231.606C59.642 232.16 59.9958 232.594 60.4564 232.907C60.917 233.214 61.471 233.368 62.1185 233.368ZM70.604 235.271V220.391H72.3463V226.229H72.4765C72.7502 225.648 73.1507 225.197 73.678 224.877C74.2054 224.557 74.8629 224.396 75.6506 224.396C76.4383 224.396 77.1092 224.56 77.6632 224.887C78.224 225.214 78.6545 225.681 78.9549 226.289C79.2553 226.896 79.4055 227.624 79.4055 228.472V235.271H77.6632V228.852C77.6632 227.891 77.4496 227.167 77.0224 226.679C76.6019 226.185 75.9677 225.938 75.1199 225.938C74.5592 225.938 74.0719 226.065 73.658 226.319C73.2441 226.566 72.9204 226.916 72.6867 227.37C72.4598 227.817 72.3463 228.355 72.3463 228.982V235.271H70.604ZM86.5793 235.391C85.5179 235.391 84.7402 235.167 84.2462 234.72C83.7589 234.266 83.5153 233.532 83.5153 232.517V226.038H81.8731V224.597H83.5153V221.793H85.3176V224.597H87.5606V226.038H85.3176V232.207C85.3176 232.814 85.4378 233.245 85.6781 233.498C85.9184 233.752 86.3056 233.879 86.8396 233.879C86.9798 233.879 87.1 233.875 87.2001 233.869C87.3069 233.862 87.4271 233.852 87.5606 233.839V235.301C87.4137 235.321 87.2568 235.341 87.0899 235.361C86.9231 235.381 86.7528 235.391 86.5793 235.391ZM90.5689 235.271V224.597H92.3112V226.169H92.4313C92.705 225.621 93.1022 225.191 93.6229 224.877C94.1436 224.557 94.8011 224.396 95.5955 224.396C96.7904 224.396 97.7082 224.743 98.3491 225.438C98.9966 226.125 99.3203 227.096 99.3203 228.351V235.271H97.578V228.742C97.578 227.807 97.3744 227.107 96.9672 226.639C96.56 226.172 95.9359 225.938 95.0948 225.938C94.5274 225.938 94.0334 226.062 93.6129 226.309C93.199 226.556 92.8786 226.906 92.6516 227.36C92.4246 227.807 92.3112 228.341 92.3112 228.962V235.271H90.5689ZM102.859 235.271V224.597H104.602V235.271H102.859ZM103.74 222.614C103.42 222.614 103.143 222.5 102.909 222.274C102.682 222.04 102.569 221.763 102.569 221.442C102.569 221.115 102.682 220.842 102.909 220.621C103.143 220.394 103.42 220.281 103.74 220.281C104.061 220.281 104.335 220.394 104.562 220.621C104.789 220.842 104.902 221.115 104.902 221.442C104.902 221.763 104.789 222.04 104.562 222.274C104.335 222.5 104.061 222.614 103.74 222.614ZM108.221 235.271V224.597H109.963V226.169H110.083C110.357 225.621 110.754 225.191 111.275 224.877C111.795 224.557 112.453 224.396 113.247 224.396C114.442 224.396 115.36 224.743 116.001 225.438C116.648 226.125 116.972 227.096 116.972 228.351V235.271H115.23V228.742C115.23 227.807 115.026 227.107 114.619 226.639C114.212 226.172 113.588 225.938 112.747 225.938C112.179 225.938 111.685 226.062 111.265 226.309C110.851 226.556 110.53 226.906 110.303 227.36C110.077 227.807 109.963 228.341 109.963 228.962V235.271H108.221ZM124.887 239.045C124.019 239.045 123.261 238.922 122.614 238.675C121.973 238.435 121.459 238.094 121.072 237.654C120.685 237.22 120.444 236.722 120.351 236.162V236.122H122.143L122.163 236.162C122.277 236.556 122.567 236.876 123.034 237.123C123.508 237.377 124.123 237.503 124.877 237.503C125.825 237.503 126.562 237.28 127.09 236.833C127.624 236.385 127.891 235.761 127.891 234.96V233.048H127.771C127.55 233.435 127.27 233.769 126.93 234.049C126.596 234.329 126.215 234.543 125.788 234.69C125.368 234.837 124.907 234.91 124.406 234.91C123.498 234.91 122.707 234.69 122.033 234.249C121.359 233.802 120.838 233.184 120.471 232.397C120.104 231.609 119.92 230.701 119.92 229.673V229.653C119.92 228.625 120.104 227.717 120.471 226.93C120.845 226.142 121.369 225.524 122.043 225.077C122.724 224.623 123.525 224.396 124.446 224.396C124.954 224.396 125.418 224.48 125.838 224.647C126.259 224.807 126.633 225.034 126.96 225.328C127.293 225.621 127.57 225.968 127.791 226.369H127.881V224.597H129.623V235.08C129.623 235.881 129.43 236.579 129.042 237.173C128.662 237.767 128.114 238.228 127.4 238.555C126.693 238.882 125.855 239.045 124.887 239.045ZM124.787 233.368C125.434 233.368 125.992 233.214 126.459 232.907C126.926 232.594 127.287 232.16 127.54 231.606C127.794 231.045 127.921 230.401 127.921 229.673V229.653C127.921 228.926 127.794 228.281 127.54 227.721C127.287 227.16 126.926 226.723 126.459 226.409C125.992 226.095 125.434 225.938 124.787 225.938C124.139 225.938 123.585 226.095 123.125 226.409C122.664 226.723 122.31 227.16 122.063 227.721C121.823 228.275 121.703 228.919 121.703 229.653V229.673C121.703 230.407 121.823 231.052 122.063 231.606C122.31 232.16 122.664 232.594 123.125 232.907C123.585 233.214 124.139 233.368 124.787 233.368ZM145.052 235.581C143.857 235.581 142.829 235.357 141.968 234.91C141.114 234.463 140.456 233.842 139.995 233.048C139.535 232.247 139.305 231.322 139.305 230.274V220.822H141.107V230.154C141.107 230.895 141.26 231.549 141.567 232.116C141.881 232.677 142.332 233.118 142.919 233.438C143.507 233.759 144.218 233.919 145.052 233.919C145.886 233.919 146.594 233.759 147.175 233.438C147.762 233.118 148.21 232.677 148.517 232.116C148.824 231.549 148.977 230.895 148.977 230.154V220.822H150.78V230.274C150.78 231.322 150.549 232.247 150.089 233.048C149.635 233.842 148.981 234.463 148.126 234.91C147.272 235.357 146.247 235.581 145.052 235.581ZM159.525 235.581C158.477 235.581 157.559 235.414 156.772 235.08C155.984 234.74 155.36 234.269 154.899 233.668C154.439 233.061 154.175 232.36 154.108 231.566L154.098 231.446H155.901L155.911 231.566C155.971 232.046 156.161 232.464 156.481 232.817C156.802 233.164 157.232 233.435 157.773 233.628C158.314 233.822 158.931 233.919 159.625 233.919C160.293 233.919 160.88 233.815 161.388 233.608C161.902 233.401 162.302 233.114 162.589 232.747C162.876 232.373 163.02 231.939 163.02 231.446V231.435C163.02 230.828 162.8 230.324 162.359 229.924C161.918 229.523 161.201 229.213 160.206 228.992L158.604 228.642C157.169 228.321 156.118 227.831 155.45 227.17C154.789 226.502 154.459 225.645 154.459 224.597V224.587C154.465 223.786 154.682 223.081 155.11 222.474C155.543 221.86 156.141 221.379 156.902 221.032C157.67 220.685 158.551 220.511 159.545 220.511C160.5 220.511 161.348 220.681 162.089 221.022C162.83 221.362 163.42 221.826 163.861 222.414C164.302 223.001 164.545 223.665 164.592 224.406L164.602 224.557H162.8L162.78 224.416C162.713 223.969 162.536 223.579 162.249 223.245C161.969 222.911 161.595 222.647 161.127 222.454C160.66 222.26 160.116 222.167 159.495 222.173C158.881 222.173 158.334 222.27 157.853 222.464C157.373 222.651 156.992 222.918 156.712 223.265C156.438 223.612 156.301 224.036 156.301 224.536V224.547C156.301 225.121 156.518 225.605 156.952 225.998C157.386 226.386 158.087 226.686 159.055 226.9L160.657 227.25C161.658 227.47 162.466 227.757 163.08 228.111C163.694 228.465 164.145 228.899 164.432 229.413C164.719 229.927 164.862 230.538 164.862 231.245V231.255C164.862 232.143 164.642 232.911 164.201 233.558C163.768 234.199 163.15 234.696 162.349 235.05C161.548 235.404 160.607 235.581 159.525 235.581ZM168.201 235.271V220.822H173.128C174.556 220.822 175.778 221.109 176.792 221.683C177.814 222.25 178.595 223.071 179.135 224.146C179.676 225.221 179.946 226.516 179.946 228.031V228.051C179.946 229.566 179.676 230.865 179.135 231.946C178.595 233.021 177.817 233.845 176.802 234.419C175.788 234.987 174.563 235.271 173.128 235.271H168.201ZM170.003 233.648H173.007C174.089 233.648 175.01 233.431 175.771 232.998C176.532 232.557 177.109 231.919 177.503 231.085C177.904 230.251 178.104 229.246 178.104 228.071V228.051C178.104 226.863 177.904 225.852 177.503 225.017C177.103 224.183 176.522 223.545 175.761 223.105C175 222.664 174.082 222.444 173.007 222.444H170.003V233.648ZM186.439 235.271V222.444H181.813V220.822H192.868V222.444H188.242V235.271H186.439Z" fill="black"/>
<path d="M42.6649 253.586C42.0154 253.586 41.4519 253.437 40.9746 253.138C40.5004 252.839 40.1351 252.415 39.8785 251.866C39.622 251.318 39.4937 250.665 39.4937 249.908V249.899C39.4937 249.139 39.622 248.484 39.8785 247.935C40.1351 247.387 40.5004 246.963 40.9746 246.664C41.4487 246.365 42.0121 246.216 42.6649 246.216C43.1812 246.216 43.6472 246.318 44.0629 246.523C44.4818 246.724 44.8244 247.003 45.0907 247.361C45.3603 247.718 45.5243 248.129 45.5827 248.593V248.622H44.4965L44.4916 248.603C44.4266 248.314 44.3081 248.064 44.136 247.853C43.9639 247.642 43.7528 247.478 43.5027 247.361C43.2527 247.244 42.9734 247.185 42.6649 247.185C42.2459 247.185 41.8822 247.296 41.5737 247.516C41.2685 247.737 41.0314 248.051 40.8625 248.457C40.6969 248.859 40.6141 249.34 40.6141 249.899V249.908C40.6141 250.46 40.6969 250.939 40.8625 251.345C41.0314 251.751 41.2685 252.065 41.5737 252.285C41.8822 252.506 42.2476 252.617 42.6697 252.617C42.9783 252.617 43.2575 252.565 43.5076 252.461C43.7609 252.357 43.972 252.209 44.1409 252.017C44.3097 251.823 44.425 251.594 44.4867 251.331L44.4965 251.311H45.5876L45.5827 251.336C45.5145 251.787 45.3489 252.181 45.0859 252.519C44.8228 252.857 44.4851 253.12 44.0727 253.308C43.6602 253.493 43.191 253.586 42.6649 253.586ZM49.438 253.518C48.9217 253.518 48.4751 253.407 48.0984 253.187C47.725 252.966 47.4376 252.651 47.2362 252.242C47.0349 251.829 46.9342 251.34 46.9342 250.775V250.766C46.9342 250.197 47.0349 249.709 47.2362 249.299C47.4408 248.89 47.7298 248.575 48.1033 248.354C48.48 248.133 48.9249 248.023 49.438 248.023C49.9544 248.023 50.3993 248.133 50.7727 248.354C51.1462 248.572 51.4336 248.887 51.6349 249.299C51.8395 249.709 51.9418 250.197 51.9418 250.766V250.775C51.9418 251.34 51.8395 251.829 51.6349 252.242C51.4336 252.651 51.1462 252.966 50.7727 253.187C50.4025 253.407 49.9576 253.518 49.438 253.518ZM49.438 252.631C49.74 252.631 49.9966 252.558 50.2077 252.412C50.4188 252.263 50.5795 252.05 50.6899 251.774C50.8003 251.498 50.8555 251.165 50.8555 250.775V250.766C50.8555 250.373 50.8003 250.038 50.6899 249.762C50.5795 249.486 50.4188 249.275 50.2077 249.129C49.9966 248.979 49.74 248.905 49.438 248.905C49.136 248.905 48.8795 248.979 48.6684 249.129C48.4573 249.275 48.2949 249.486 48.1812 249.762C48.0708 250.038 48.0156 250.373 48.0156 250.766V250.775C48.0156 251.165 48.0708 251.498 48.1812 251.774C48.2949 252.05 48.4573 252.263 48.6684 252.412C48.8795 252.558 49.136 252.631 49.438 252.631ZM53.5466 253.416V246.05H54.6037V253.416H53.5466ZM58.7171 253.518C58.2008 253.518 57.7542 253.407 57.3775 253.187C57.0041 252.966 56.7167 252.651 56.5153 252.242C56.314 251.829 56.2133 251.34 56.2133 250.775V250.766C56.2133 250.197 56.314 249.709 56.5153 249.299C56.7199 248.89 57.0089 248.575 57.3824 248.354C57.7591 248.133 58.204 248.023 58.7171 248.023C59.2335 248.023 59.6784 248.133 60.0518 248.354C60.4253 248.572 60.7127 248.887 60.914 249.299C61.1186 249.709 61.2209 250.197 61.2209 250.766V250.775C61.2209 251.34 61.1186 251.829 60.914 252.242C60.7127 252.651 60.4253 252.966 60.0518 253.187C59.6816 253.407 59.2367 253.518 58.7171 253.518ZM58.7171 252.631C59.0191 252.631 59.2757 252.558 59.4868 252.412C59.6979 252.263 59.8586 252.05 59.969 251.774C60.0794 251.498 60.1346 251.165 60.1346 250.775V250.766C60.1346 250.373 60.0794 250.038 59.969 249.762C59.8586 249.486 59.6979 249.275 59.4868 249.129C59.2757 248.979 59.0191 248.905 58.7171 248.905C58.4151 248.905 58.1586 248.979 57.9475 249.129C57.7364 249.275 57.574 249.486 57.4603 249.762C57.3499 250.038 57.2947 250.373 57.2947 250.766V250.775C57.2947 251.165 57.3499 251.498 57.4603 251.774C57.574 252.05 57.7364 252.263 57.9475 252.412C58.1586 252.558 58.4151 252.631 58.7171 252.631ZM62.777 253.416V248.125H63.8341V248.924H63.9169C64.011 248.642 64.1767 248.423 64.4137 248.267C64.654 248.111 64.9496 248.033 65.3003 248.033C65.388 248.033 65.474 248.038 65.5585 248.047C65.6429 248.057 65.7111 248.069 65.7631 248.082V249.056C65.6689 249.036 65.5747 249.022 65.4805 249.012C65.3896 249.002 65.2938 248.997 65.1931 248.997C64.9236 248.997 64.6865 249.049 64.4819 249.153C64.2806 249.257 64.1215 249.403 64.0045 249.592C63.8909 249.777 63.8341 249.998 63.8341 250.254V253.416H62.777ZM68.8974 253.518C68.472 253.518 68.1018 253.456 67.7868 253.333C67.4718 253.206 67.2217 253.032 67.0366 252.811C66.8515 252.587 66.7427 252.328 66.7102 252.032V252.022H67.7721V252.032C67.8403 252.23 67.9702 252.391 68.1618 252.514C68.3534 252.638 68.6068 252.699 68.9218 252.699C69.1393 252.699 69.3293 252.669 69.4917 252.607C69.6573 252.545 69.7872 252.459 69.8814 252.349C69.9756 252.238 70.0227 252.112 70.0227 251.969V251.959C70.0227 251.793 69.9561 251.654 69.8229 251.54C69.6898 251.426 69.4706 251.334 69.1653 251.262L68.3177 251.068C67.9865 250.993 67.7121 250.891 67.4945 250.761C67.2769 250.631 67.1162 250.472 67.0122 250.283C66.9083 250.092 66.8564 249.868 66.8564 249.611V249.606C66.8564 249.298 66.944 249.025 67.1194 248.788C67.2948 248.548 67.5367 248.361 67.8452 248.228C68.157 248.091 68.5126 248.023 68.912 248.023C69.3147 248.023 69.6654 248.086 69.9642 248.213C70.2662 248.336 70.5049 248.509 70.6803 248.729C70.8556 248.947 70.9596 249.2 70.992 249.489V249.494H69.9788V249.484C69.9301 249.299 69.8132 249.145 69.6281 249.022C69.4462 248.898 69.2059 248.837 68.9071 248.837C68.7155 248.837 68.545 248.867 68.3957 248.929C68.2463 248.988 68.1277 249.07 68.0401 249.178C67.9556 249.281 67.9134 249.405 67.9134 249.548V249.558C67.9134 249.668 67.941 249.765 67.9962 249.85C68.0547 249.931 68.1456 250.004 68.269 250.069C68.3924 250.131 68.5515 250.186 68.7464 250.235L69.5891 250.425C70.0957 250.545 70.4724 250.718 70.7192 250.946C70.9693 251.173 71.0943 251.478 71.0943 251.862V251.871C71.0943 252.196 70.9985 252.483 70.8069 252.734C70.6153 252.98 70.3539 253.174 70.0227 253.313C69.6947 253.45 69.3196 253.518 68.8974 253.518ZM72.6991 253.416V246.05H73.7562V248.924H73.839C73.9689 248.642 74.1605 248.421 74.4138 248.262C74.6671 248.103 74.987 248.023 75.3734 248.023C75.7663 248.023 76.0992 248.099 76.372 248.252C76.6448 248.405 76.8526 248.629 76.9955 248.924C77.1384 249.217 77.2099 249.572 77.2099 249.991V253.416H76.1479V250.239C76.1479 249.798 76.0554 249.47 75.8703 249.256C75.6884 249.038 75.4026 248.929 75.0129 248.929C74.7564 248.929 74.5339 248.986 74.3456 249.1C74.1572 249.21 74.0111 249.369 73.9072 249.577C73.8065 249.782 73.7562 250.027 73.7562 250.313V253.416H72.6991ZM78.9949 253.416V248.125H80.0568V253.416H78.9949ZM79.5307 247.18C79.3488 247.18 79.193 247.115 79.0631 246.986C78.9332 246.856 78.8682 246.7 78.8682 246.518C78.8682 246.336 78.9332 246.182 79.0631 246.055C79.193 245.925 79.3488 245.86 79.5307 245.86C79.7126 245.86 79.8684 245.925 79.9983 246.055C80.1282 246.182 80.1932 246.336 80.1932 246.518C80.1932 246.7 80.1282 246.856 79.9983 246.986C79.8684 247.115 79.7126 247.18 79.5307 247.18ZM82.2656 253.416V248.958H81.3937V248.125H82.2656V247.57C82.2656 247.216 82.3241 246.924 82.441 246.693C82.5611 246.459 82.743 246.286 82.9865 246.172C83.2301 246.058 83.537 246.002 83.9072 246.002C84.0241 246.002 84.1329 246.006 84.2336 246.016C84.3375 246.023 84.4365 246.034 84.5307 246.05V246.83C84.482 246.82 84.4219 246.813 84.3505 246.81C84.2823 246.804 84.2076 246.8 84.1264 246.8C83.8341 246.8 83.6247 246.87 83.498 247.01C83.3746 247.15 83.3129 247.352 83.3129 247.619V248.125H84.482V248.958H83.3227V253.416H82.2656ZM87.9866 253.45C87.4085 253.45 86.9896 253.339 86.7298 253.118C86.4732 252.894 86.345 252.529 86.345 252.022V248.958H85.5169V248.125H86.345V246.791H87.4264V248.125H88.5614V248.958H87.4264V251.764C87.4264 252.05 87.4832 252.256 87.5969 252.383C87.7105 252.506 87.8989 252.568 88.1619 252.568C88.2399 252.568 88.3064 252.566 88.3617 252.563C88.4201 252.56 88.4867 252.555 88.5614 252.548V253.396C88.4769 253.409 88.386 253.42 88.2886 253.43C88.1912 253.443 88.0905 253.45 87.9866 253.45ZM93.7827 253.416V252.524H95.9066C96.4002 252.524 96.7737 252.425 97.027 252.227C97.2803 252.029 97.4069 251.741 97.4069 251.365V251.355C97.4069 251.102 97.3485 250.891 97.2316 250.722C97.1147 250.553 96.9393 250.426 96.7055 250.342C96.4749 250.254 96.1875 250.21 95.8433 250.21H93.7827V249.377H95.6241C96.1079 249.377 96.4733 249.29 96.7201 249.114C96.9669 248.936 97.0903 248.676 97.0903 248.335V248.325C97.0903 247.994 96.9783 247.737 96.7542 247.555C96.5301 247.37 96.2151 247.278 95.8092 247.278H93.7827V246.386H96.0673C96.5058 246.386 96.8825 246.458 97.1975 246.601C97.5157 246.744 97.7593 246.947 97.9282 247.21C98.097 247.469 98.1815 247.778 98.1815 248.135V248.145C98.1815 248.392 98.1263 248.622 98.0158 248.837C97.9054 249.048 97.7577 249.226 97.5726 249.372C97.3874 249.519 97.178 249.611 96.9442 249.65V249.733C97.2624 249.765 97.5401 249.858 97.7771 250.011C98.0142 250.163 98.1993 250.361 98.3325 250.605C98.4656 250.845 98.5322 251.118 98.5322 251.423V251.433C98.5322 251.842 98.4348 252.196 98.2399 252.495C98.0483 252.79 97.7739 253.018 97.4167 253.177C97.0595 253.336 96.6308 253.416 96.1307 253.416H93.7827ZM93.2372 253.416V246.386H94.3283V253.416H93.2372ZM100.108 253.416V248.125H101.165V248.924H101.248C101.342 248.642 101.507 248.423 101.744 248.267C101.985 248.111 102.28 248.033 102.631 248.033C102.719 248.033 102.805 248.038 102.889 248.047C102.974 248.057 103.042 248.069 103.094 248.082V249.056C103 249.036 102.905 249.022 102.811 249.012C102.72 249.002 102.625 248.997 102.524 248.997C102.254 248.997 102.017 249.049 101.813 249.153C101.611 249.257 101.452 249.403 101.335 249.592C101.222 249.777 101.165 249.998 101.165 250.254V253.416H100.108ZM104.426 253.416V248.125H105.488V253.416H104.426ZM104.962 247.18C104.78 247.18 104.624 247.115 104.494 246.986C104.364 246.856 104.299 246.7 104.299 246.518C104.299 246.336 104.364 246.182 104.494 246.055C104.624 245.925 104.78 245.86 104.962 245.86C105.143 245.86 105.299 245.925 105.429 246.055C105.559 246.182 105.624 246.336 105.624 246.518C105.624 246.7 105.559 246.856 105.429 246.986C105.299 247.115 105.143 247.18 104.962 247.18ZM109.25 253.503C108.809 253.503 108.422 253.393 108.091 253.172C107.763 252.948 107.508 252.631 107.326 252.222C107.148 251.813 107.058 251.331 107.058 250.775V250.766C107.058 250.207 107.148 249.723 107.326 249.314C107.505 248.905 107.758 248.59 108.086 248.369C108.414 248.145 108.802 248.033 109.25 248.033C109.494 248.033 109.721 248.072 109.932 248.15C110.144 248.224 110.33 248.332 110.493 248.471C110.655 248.608 110.783 248.772 110.877 248.963H110.955V246.05H112.017V253.416H110.955V252.583H110.877C110.774 252.774 110.642 252.94 110.483 253.079C110.324 253.216 110.14 253.321 109.932 253.396C109.725 253.467 109.497 253.503 109.25 253.503ZM109.552 252.597C109.845 252.597 110.098 252.524 110.312 252.378C110.527 252.232 110.691 252.022 110.804 251.75C110.918 251.474 110.975 251.149 110.975 250.775V250.766C110.975 250.389 110.916 250.064 110.799 249.791C110.686 249.519 110.522 249.309 110.308 249.163C110.096 249.014 109.845 248.939 109.552 248.939C109.26 248.939 109.007 249.014 108.793 249.163C108.581 249.309 108.419 249.519 108.305 249.791C108.195 250.061 108.14 250.386 108.14 250.766V250.775C108.14 251.152 108.195 251.477 108.305 251.75C108.419 252.022 108.581 252.232 108.793 252.378C109.007 252.524 109.26 252.597 109.552 252.597ZM116.121 255.281C115.673 255.281 115.283 255.22 114.952 255.096C114.624 254.973 114.364 254.801 114.173 254.58C113.981 254.359 113.864 254.102 113.822 253.81L113.827 253.8H114.898L114.903 253.81C114.949 253.992 115.077 254.141 115.288 254.258C115.499 254.375 115.782 254.434 116.136 254.434C116.571 254.434 116.91 254.335 117.154 254.136C117.401 253.938 117.524 253.661 117.524 253.303V252.266H117.441C117.337 252.454 117.204 252.617 117.042 252.753C116.879 252.886 116.694 252.987 116.486 253.055C116.279 253.123 116.053 253.157 115.809 253.157C115.361 253.157 114.971 253.05 114.64 252.836C114.312 252.618 114.059 252.32 113.88 251.94C113.705 251.556 113.617 251.116 113.617 250.619V250.61C113.617 250.106 113.707 249.661 113.885 249.275C114.064 248.885 114.319 248.582 114.65 248.364C114.981 248.143 115.376 248.033 115.834 248.033C116.08 248.033 116.306 248.072 116.511 248.15C116.719 248.228 116.902 248.338 117.061 248.481C117.22 248.624 117.352 248.794 117.456 248.992H117.519V248.125H118.576V253.308C118.576 253.708 118.475 254.055 118.274 254.351C118.076 254.646 117.793 254.875 117.427 255.038C117.06 255.2 116.624 255.281 116.121 255.281ZM116.106 252.281C116.405 252.281 116.662 252.211 116.876 252.071C117.09 251.928 117.254 251.732 117.368 251.482C117.485 251.232 117.543 250.943 117.543 250.615V250.605C117.543 250.28 117.485 249.991 117.368 249.738C117.254 249.484 117.09 249.286 116.876 249.143C116.662 249.001 116.405 248.929 116.106 248.929C115.808 248.929 115.553 249.001 115.342 249.143C115.134 249.286 114.975 249.484 114.864 249.738C114.754 249.988 114.699 250.277 114.699 250.605V250.615C114.699 250.943 114.754 251.232 114.864 251.482C114.975 251.732 115.134 251.928 115.342 252.071C115.553 252.211 115.808 252.281 116.106 252.281ZM122.621 253.518C122.105 253.518 121.662 253.407 121.292 253.187C120.921 252.963 120.636 252.646 120.434 252.237C120.236 251.828 120.137 251.344 120.137 250.785V250.78C120.137 250.228 120.236 249.746 120.434 249.333C120.636 248.921 120.918 248.6 121.282 248.369C121.649 248.138 122.077 248.023 122.568 248.023C123.061 248.023 123.485 248.133 123.839 248.354C124.196 248.575 124.471 248.885 124.662 249.285C124.854 249.681 124.95 250.145 124.95 250.678V251.048H120.673V250.293H124.424L123.917 250.995V250.571C123.917 250.194 123.859 249.882 123.742 249.635C123.628 249.385 123.471 249.199 123.269 249.075C123.068 248.952 122.836 248.89 122.573 248.89C122.31 248.89 122.074 248.955 121.866 249.085C121.662 249.212 121.499 249.4 121.379 249.65C121.262 249.9 121.204 250.207 121.204 250.571V250.995C121.204 251.342 121.262 251.639 121.379 251.886C121.496 252.133 121.662 252.321 121.876 252.451C122.094 252.581 122.35 252.646 122.646 252.646C122.873 252.646 123.068 252.615 123.23 252.553C123.396 252.488 123.531 252.409 123.635 252.315C123.742 252.22 123.815 252.128 123.854 252.037L123.873 251.998H124.896L124.886 252.042C124.841 252.217 124.761 252.393 124.648 252.568C124.534 252.74 124.383 252.898 124.195 253.04C124.01 253.183 123.786 253.299 123.523 253.386C123.263 253.474 122.962 253.518 122.621 253.518Z" fill="black"/>
<g filter="url(#filter1_d_19_895)">
<path d="M143.307 248.166C143.144 248.056 142.996 247.924 142.868 247.774C142.878 247.565 142.92 247.359 142.993 247.163C143.13 246.699 143.301 246.121 142.971 245.668C142.64 245.212 142.034 245.197 141.547 245.185C141.342 245.193 141.137 245.171 140.939 245.119C140.83 244.948 140.747 244.762 140.692 244.567C140.529 244.104 140.327 243.528 139.785 243.352C139.259 243.181 138.787 243.506 138.371 243.791C138.204 243.925 138.016 244.03 137.815 244.104C137.614 244.031 137.426 243.925 137.259 243.791C136.843 243.506 136.371 243.182 135.845 243.352C135.304 243.528 135.101 244.104 134.939 244.566C134.884 244.761 134.802 244.946 134.694 245.117C134.495 245.17 134.289 245.193 134.083 245.184C133.597 245.197 132.991 245.212 132.659 245.668C132.33 246.121 132.5 246.699 132.638 247.163C132.71 247.358 132.752 247.563 132.763 247.77C132.636 247.923 132.488 248.056 132.323 248.166C131.93 248.465 131.441 248.838 131.441 249.415C131.441 249.992 131.93 250.365 132.323 250.665C132.487 250.775 132.634 250.907 132.762 251.057C132.753 251.266 132.711 251.472 132.638 251.668C132.5 252.132 132.33 252.71 132.659 253.163C132.991 253.618 133.597 253.634 134.083 253.646C134.288 253.638 134.493 253.66 134.691 253.712C134.8 253.883 134.884 254.069 134.939 254.264C135.101 254.727 135.303 255.303 135.845 255.479C135.941 255.51 136.042 255.526 136.143 255.526C136.551 255.526 136.923 255.27 137.259 255.039C137.426 254.906 137.614 254.8 137.815 254.727C138.016 254.8 138.204 254.906 138.371 255.039C138.787 255.325 139.259 255.649 139.785 255.479C140.327 255.303 140.529 254.727 140.692 254.264C140.747 254.07 140.829 253.885 140.936 253.714C141.135 253.66 141.341 253.638 141.547 253.646C142.034 253.634 142.64 253.619 142.971 253.163C143.301 252.71 143.13 252.132 142.993 251.668C142.921 251.473 142.878 251.268 142.867 251.06C142.994 250.908 143.143 250.775 143.308 250.665C143.7 250.365 144.189 249.992 144.189 249.415C144.189 248.838 143.7 248.465 143.307 248.166ZM140.182 248.463L137.527 251.119C137.319 251.326 136.983 251.326 136.776 251.119C136.776 251.119 136.776 251.119 136.776 251.119L135.448 249.791C135.238 249.586 135.233 249.25 135.438 249.04C135.643 248.83 135.979 248.826 136.189 249.03C136.193 249.033 136.196 249.037 136.199 249.04L137.151 249.992L139.431 247.712C139.636 247.502 139.972 247.498 140.182 247.702C140.393 247.907 140.397 248.244 140.192 248.454C140.189 248.457 140.186 248.46 140.182 248.463Z" fill="black"/>
</g>
<path d="M254.27 232.144V223.163H255.876V232.144H254.27ZM258.312 232.144V225.341H259.862V226.387H259.968C260.13 226.017 260.375 225.729 260.703 225.522C261.03 225.314 261.439 225.21 261.929 225.21C262.688 225.21 263.269 225.43 263.672 225.87C264.074 226.31 264.275 226.935 264.275 227.744V232.144H262.725V228.105C262.725 227.574 262.613 227.175 262.389 226.91C262.169 226.644 261.825 226.511 261.356 226.511C261.049 226.511 260.783 226.58 260.559 226.717C260.335 226.854 260.163 227.047 260.043 227.296C259.922 227.544 259.862 227.839 259.862 228.179V232.144H258.312ZM270.148 232.368C269.392 232.368 268.739 232.229 268.187 231.951C267.635 231.673 267.208 231.285 266.905 230.787C266.606 230.289 266.457 229.711 266.457 229.051V223.163H268.056V228.92C268.056 229.331 268.137 229.692 268.299 230.003C268.465 230.31 268.704 230.551 269.015 230.725C269.326 230.895 269.706 230.98 270.154 230.98C270.598 230.98 270.975 230.895 271.287 230.725C271.598 230.551 271.834 230.31 271.996 230.003C272.158 229.692 272.239 229.331 272.239 228.92V223.163H273.839V229.051C273.839 229.711 273.689 230.289 273.39 230.787C273.092 231.285 272.666 231.673 272.114 231.951C271.567 232.229 270.911 232.368 270.148 232.368ZM279.549 232.368C278.852 232.368 278.246 232.26 277.732 232.045C277.221 231.829 276.819 231.528 276.524 231.142C276.229 230.756 276.063 230.306 276.026 229.791L276.02 229.704H277.576L277.582 229.767C277.607 230.02 277.707 230.24 277.881 230.426C278.059 230.613 278.296 230.76 278.591 230.868C278.885 230.972 279.221 231.024 279.599 231.024C279.96 231.024 280.279 230.968 280.557 230.856C280.835 230.744 281.053 230.59 281.211 230.395C281.369 230.196 281.448 229.968 281.448 229.711V229.704C281.448 229.381 281.321 229.117 281.068 228.914C280.815 228.706 280.398 228.54 279.817 228.416L278.852 228.217C277.931 228.022 277.261 227.71 276.842 227.283C276.427 226.852 276.219 226.302 276.219 225.634V225.627C276.219 225.092 276.36 224.623 276.642 224.221C276.929 223.818 277.321 223.505 277.819 223.281C278.321 223.053 278.896 222.938 279.543 222.938C280.207 222.938 280.782 223.051 281.267 223.275C281.753 223.495 282.134 223.795 282.412 224.177C282.69 224.559 282.846 224.99 282.879 225.472L282.885 225.553H281.354L281.342 225.478C281.304 225.241 281.207 225.036 281.049 224.862C280.896 224.683 280.69 224.542 280.433 224.439C280.176 224.335 279.875 224.283 279.53 224.283C279.203 224.283 278.91 224.335 278.653 224.439C278.396 224.538 278.192 224.679 278.043 224.862C277.898 225.044 277.825 225.264 277.825 225.522V225.528C277.825 225.843 277.947 226.105 278.192 226.312C278.441 226.52 278.846 226.681 279.406 226.798L280.371 227.003C281.001 227.136 281.514 227.312 281.908 227.532C282.302 227.752 282.591 228.026 282.773 228.354C282.96 228.677 283.053 229.067 283.053 229.524V229.53C283.053 230.111 282.91 230.613 282.624 231.036C282.342 231.46 281.937 231.787 281.41 232.02C280.887 232.252 280.267 232.368 279.549 232.368ZM285.241 232.144V223.163H288.608C289.5 223.163 290.26 223.337 290.886 223.685C291.517 224.034 291.998 224.54 292.33 225.204C292.667 225.868 292.835 226.669 292.835 227.607V227.619C292.835 228.578 292.669 229.395 292.337 230.072C292.005 230.744 291.523 231.258 290.893 231.615C290.266 231.968 289.505 232.144 288.608 232.144H285.241ZM286.847 230.794H288.397C288.99 230.794 289.496 230.671 289.915 230.426C290.334 230.182 290.652 229.825 290.868 229.356C291.088 228.887 291.198 228.316 291.198 227.644V227.632C291.198 226.976 291.086 226.416 290.861 225.951C290.642 225.482 290.322 225.125 289.903 224.88C289.484 224.636 288.982 224.513 288.397 224.513H286.847V230.794ZM296.958 232.144V224.513H294.194V223.163H301.327V224.513H298.564V232.144H296.958Z" fill="black"/>
<path d="M288.941 248.796C288.407 248.796 287.918 248.707 287.475 248.529C287.036 248.347 286.681 248.086 286.412 247.745C286.143 247.4 285.999 246.985 285.98 246.5V246.495L287.163 246.489V246.5C287.2 246.743 287.288 246.961 287.424 247.154C287.56 247.347 287.754 247.499 288.004 247.608C288.254 247.714 288.572 247.768 288.958 247.768C289.352 247.768 289.673 247.718 289.919 247.62C290.165 247.517 290.345 247.379 290.459 247.205C290.576 247.031 290.635 246.834 290.635 246.614V246.603C290.635 246.311 290.536 246.072 290.339 245.886C290.142 245.701 289.771 245.544 289.226 245.415L288.379 245.216C287.901 245.102 287.498 244.953 287.168 244.767C286.839 244.577 286.587 244.344 286.412 244.068C286.242 243.791 286.157 243.462 286.157 243.079V243.068C286.157 242.609 286.278 242.213 286.52 241.88C286.763 241.546 287.092 241.289 287.509 241.107C287.93 240.925 288.407 240.834 288.941 240.834C289.468 240.834 289.94 240.929 290.356 241.118C290.773 241.308 291.105 241.573 291.351 241.914C291.601 242.255 291.736 242.657 291.755 243.119L291.749 243.124L290.572 243.13V243.119C290.546 242.85 290.459 242.622 290.311 242.437C290.167 242.251 289.978 242.109 289.743 242.011C289.508 241.912 289.243 241.863 288.947 241.863C288.602 241.863 288.312 241.916 288.078 242.022C287.843 242.124 287.665 242.261 287.543 242.431C287.426 242.598 287.367 242.78 287.367 242.977V242.988C287.367 243.162 287.411 243.321 287.498 243.465C287.585 243.606 287.723 243.731 287.913 243.841C288.106 243.95 288.364 244.043 288.686 244.119L289.532 244.318C290.283 244.492 290.855 244.748 291.249 245.085C291.647 245.419 291.845 245.886 291.845 246.489V246.5C291.845 246.997 291.713 247.415 291.448 247.756C291.186 248.097 290.836 248.357 290.396 248.535C289.957 248.709 289.472 248.796 288.941 248.796ZM288.6 249.734V239.891H289.277V249.734H288.6ZM299.432 248.916V242.028H299.341L297.278 243.5V242.249L299.437 240.715H300.71V248.916H299.432Z" fill="black"/>
<path d="M39.3351 306.586L42.578 297.604H43.7046V299.179H43.2814L40.8041 306.586H39.3351ZM40.8974 304.158L41.2896 303.038H45.379L45.7711 304.158H40.8974ZM45.8582 306.586L43.3872 299.179V297.604H44.0905L47.3272 306.586H45.8582ZM50.1309 306.586L47.6847 299.826H49.1225L50.8093 305.216H50.9089L52.5895 299.826H54.0149L51.5749 306.586H50.1309ZM57.3787 306.698C56.9513 306.698 56.5675 306.617 56.2272 306.455C55.8911 306.289 55.6256 306.055 55.4305 305.752C55.2355 305.449 55.138 305.094 55.138 304.687V304.675C55.138 304.268 55.2355 303.922 55.4305 303.635C55.6297 303.349 55.916 303.125 56.2895 302.963C56.6671 302.797 57.1235 302.698 57.6588 302.664L60.1548 302.515V303.467L57.8456 303.617C57.3808 303.646 57.0385 303.745 56.8186 303.915C56.5986 304.081 56.4887 304.316 56.4887 304.619V304.631C56.4887 304.938 56.6069 305.181 56.8435 305.359C57.08 305.534 57.3787 305.621 57.7398 305.621C58.0759 305.621 58.3746 305.555 58.6361 305.422C58.9016 305.285 59.1091 305.102 59.2585 304.874C59.4079 304.642 59.4826 304.38 59.4826 304.09V301.961C59.4826 301.588 59.3664 301.303 59.134 301.108C58.9058 300.909 58.5655 300.81 58.1132 300.81C57.7356 300.81 57.4265 300.876 57.1858 301.009C56.9493 301.141 56.7916 301.328 56.7127 301.569L56.7003 301.588H55.3994L55.4056 301.544C55.4596 301.171 55.6069 300.847 55.8476 300.573C56.0924 300.295 56.4119 300.079 56.8061 299.926C57.2045 299.772 57.6588 299.695 58.1692 299.695C58.7377 299.695 59.2191 299.787 59.6133 299.969C60.0116 300.148 60.3125 300.407 60.5158 300.747C60.7233 301.083 60.827 301.488 60.827 301.961V306.586H59.4826V305.627H59.383C59.2502 305.855 59.0842 306.05 58.885 306.212C58.6859 306.37 58.4597 306.49 58.2066 306.573C57.9535 306.656 57.6775 306.698 57.3787 306.698ZM63.1328 306.586V299.826H64.4897V306.586H63.1328ZM63.8175 298.619C63.5851 298.619 63.3859 298.536 63.2199 298.37C63.0539 298.204 62.9709 298.004 62.9709 297.772C62.9709 297.54 63.0539 297.343 63.2199 297.181C63.3859 297.015 63.5851 296.932 63.8175 296.932C64.0498 296.932 64.249 297.015 64.415 297.181C64.581 297.343 64.664 297.54 64.664 297.772C64.664 298.004 64.581 298.204 64.415 298.37C64.249 298.536 64.0498 298.619 63.8175 298.619ZM66.895 306.586V297.174H68.2457V306.586H66.895ZM72.4934 306.698C72.066 306.698 71.6822 306.617 71.3419 306.455C71.0058 306.289 70.7403 306.055 70.5452 305.752C70.3502 305.449 70.2527 305.094 70.2527 304.687V304.675C70.2527 304.268 70.3502 303.922 70.5452 303.635C70.7444 303.349 71.0307 303.125 71.4042 302.963C71.7818 302.797 72.2383 302.698 72.7735 302.664L75.2695 302.515V303.467L72.9603 303.617C72.4955 303.646 72.1532 303.745 71.9333 303.915C71.7133 304.081 71.6034 304.316 71.6034 304.619V304.631C71.6034 304.938 71.7216 305.181 71.9582 305.359C72.1947 305.534 72.4934 305.621 72.8545 305.621C73.1906 305.621 73.4893 305.555 73.7508 305.422C74.0163 305.285 74.2238 305.102 74.3732 304.874C74.5226 304.642 74.5973 304.38 74.5973 304.09V301.961C74.5973 301.588 74.4811 301.303 74.2487 301.108C74.0205 300.909 73.6802 300.81 73.2279 300.81C72.8503 300.81 72.5412 300.876 72.3005 301.009C72.064 301.141 71.9063 301.328 71.8274 301.569L71.815 301.588H70.5141L70.5203 301.544C70.5743 301.171 70.7216 300.847 70.9623 300.573C71.2071 300.295 71.5266 300.079 71.9208 299.926C72.3192 299.772 72.7735 299.695 73.2839 299.695C73.8524 299.695 74.3338 299.787 74.728 299.969C75.1263 300.148 75.4272 300.407 75.6305 300.747C75.838 301.083 75.9417 301.488 75.9417 301.961V306.586H74.5973V305.627H74.4977C74.3649 305.855 74.1989 306.05 73.9997 306.212C73.8006 306.37 73.5744 306.49 73.3213 306.573C73.0682 306.656 72.7922 306.698 72.4934 306.698ZM81.8265 306.698C81.5111 306.698 81.2206 306.652 80.9551 306.561C80.6895 306.465 80.453 306.33 80.2455 306.156C80.0422 305.978 79.8762 305.766 79.7476 305.521H79.6417V306.586H78.2911V297.174H79.6417V300.897H79.7476C79.8679 300.652 80.0318 300.442 80.2393 300.268C80.4468 300.09 80.6854 299.953 80.9551 299.857C81.2248 299.758 81.5153 299.708 81.8265 299.708C82.3991 299.708 82.895 299.851 83.3141 300.137C83.7332 300.419 84.0569 300.822 84.2851 301.345C84.5133 301.868 84.6274 302.486 84.6274 303.2V303.212C84.6274 303.922 84.5112 304.538 84.2789 305.061C84.0506 305.584 83.727 305.988 83.3079 306.274C82.8888 306.557 82.395 306.698 81.8265 306.698ZM81.4406 305.54C81.8182 305.54 82.1418 305.447 82.4116 305.26C82.6813 305.073 82.8867 304.806 83.0278 304.457C83.173 304.108 83.2456 303.693 83.2456 303.212V303.2C83.2456 302.714 83.173 302.299 83.0278 301.955C82.8867 301.606 82.6813 301.339 82.4116 301.152C82.1418 300.961 81.8182 300.866 81.4406 300.866C81.0671 300.866 80.7434 300.961 80.4696 301.152C80.1957 301.339 79.9862 301.606 79.8409 301.955C79.6957 302.303 79.6231 302.718 79.6231 303.2V303.212C79.6231 303.689 79.6957 304.104 79.8409 304.457C79.9862 304.806 80.1957 305.073 80.4696 305.26C80.7434 305.447 81.0671 305.54 81.4406 305.54ZM86.678 306.586V297.174H88.0287V306.586H86.678ZM93.2599 306.716C92.6001 306.716 92.0337 306.575 91.5606 306.293C91.0876 306.007 90.7224 305.602 90.4651 305.079C90.212 304.557 90.0854 303.938 90.0854 303.225V303.218C90.0854 302.513 90.212 301.897 90.4651 301.37C90.7224 300.843 91.0834 300.432 91.5482 300.137C92.0171 299.843 92.5648 299.695 93.1914 299.695C93.8221 299.695 94.3636 299.836 94.8159 300.119C95.2724 300.401 95.623 300.797 95.8679 301.307C96.1127 301.814 96.2351 302.407 96.2351 303.088V303.561H90.7701V302.596H95.5629L94.9155 303.492V302.951C94.9155 302.469 94.8408 302.071 94.6915 301.756C94.5462 301.436 94.345 301.197 94.0877 301.04C93.8304 300.882 93.5337 300.803 93.1976 300.803C92.8615 300.803 92.5607 300.886 92.2951 301.052C92.0337 301.214 91.8262 301.455 91.6726 301.774C91.5233 302.094 91.4486 302.486 91.4486 302.951V303.492C91.4486 303.936 91.5233 304.316 91.6726 304.631C91.822 304.947 92.0337 305.187 92.3075 305.353C92.5856 305.519 92.9134 305.602 93.291 305.602C93.5814 305.602 93.8304 305.563 94.0379 305.484C94.2495 305.401 94.4217 305.299 94.5545 305.179C94.6915 305.059 94.7848 304.94 94.8346 304.824L94.8595 304.774H96.1666L96.1542 304.83C96.0961 305.055 95.9944 305.279 95.8492 305.503C95.7039 305.723 95.511 305.924 95.2703 306.106C95.0338 306.289 94.7475 306.436 94.4114 306.548C94.0794 306.66 93.6956 306.716 93.2599 306.716ZM105.677 306.698C105.361 306.698 105.071 306.652 104.805 306.561C104.54 306.465 104.303 306.33 104.096 306.156C103.892 305.978 103.726 305.766 103.598 305.521H103.492V306.586H102.141V297.174H103.492V300.897H103.598C103.718 300.652 103.882 300.442 104.089 300.268C104.297 300.09 104.536 299.953 104.805 299.857C105.075 299.758 105.365 299.708 105.677 299.708C106.249 299.708 106.745 299.851 107.164 300.137C107.583 300.419 107.907 300.822 108.135 301.345C108.364 301.868 108.478 302.486 108.478 303.2V303.212C108.478 303.922 108.361 304.538 108.129 305.061C107.901 305.584 107.577 305.988 107.158 306.274C106.739 306.557 106.245 306.698 105.677 306.698ZM105.291 305.54C105.668 305.54 105.992 305.447 106.262 305.26C106.531 305.073 106.737 304.806 106.878 304.457C107.023 304.108 107.096 303.693 107.096 303.212V303.2C107.096 302.714 107.023 302.299 106.878 301.955C106.737 301.606 106.531 301.339 106.262 301.152C105.992 300.961 105.668 300.866 105.291 300.866C104.917 300.866 104.594 300.961 104.32 301.152C104.046 301.339 103.836 301.606 103.691 301.955C103.546 302.303 103.473 302.718 103.473 303.2V303.212C103.473 303.689 103.546 304.104 103.691 304.457C103.836 304.806 104.046 305.073 104.32 305.26C104.594 305.447 104.917 305.54 105.291 305.54ZM112.321 306.698C111.893 306.698 111.51 306.617 111.169 306.455C110.833 306.289 110.568 306.055 110.373 305.752C110.178 305.449 110.08 305.094 110.08 304.687V304.675C110.08 304.268 110.178 303.922 110.373 303.635C110.572 303.349 110.858 303.125 111.232 302.963C111.609 302.797 112.066 302.698 112.601 302.664L115.097 302.515V303.467L112.788 303.617C112.323 303.646 111.981 303.745 111.761 303.915C111.541 304.081 111.431 304.316 111.431 304.619V304.631C111.431 304.938 111.549 305.181 111.786 305.359C112.022 305.534 112.321 305.621 112.682 305.621C113.018 305.621 113.317 305.555 113.578 305.422C113.844 305.285 114.051 305.102 114.201 304.874C114.35 304.642 114.425 304.38 114.425 304.09V301.961C114.425 301.588 114.308 301.303 114.076 301.108C113.848 300.909 113.508 300.81 113.055 300.81C112.678 300.81 112.369 300.876 112.128 301.009C111.891 301.141 111.734 301.328 111.655 301.569L111.642 301.588H110.341L110.348 301.544C110.402 301.171 110.549 300.847 110.79 300.573C111.034 300.295 111.354 300.079 111.748 299.926C112.147 299.772 112.601 299.695 113.111 299.695C113.68 299.695 114.161 299.787 114.555 299.969C114.954 300.148 115.255 300.407 115.458 300.747C115.665 301.083 115.769 301.488 115.769 301.961V306.586H114.425V305.627H114.325C114.192 305.855 114.026 306.05 113.827 306.212C113.628 306.37 113.402 306.49 113.149 306.573C112.896 306.656 112.62 306.698 112.321 306.698ZM118.118 306.586V297.174H119.469V306.586H118.118ZM123.717 306.698C123.289 306.698 122.906 306.617 122.565 306.455C122.229 306.289 121.964 306.055 121.769 305.752C121.574 305.449 121.476 305.094 121.476 304.687V304.675C121.476 304.268 121.574 303.922 121.769 303.635C121.968 303.349 122.254 303.125 122.628 302.963C123.005 302.797 123.462 302.698 123.997 302.664L126.493 302.515V303.467L124.184 303.617C123.719 303.646 123.377 303.745 123.157 303.915C122.937 304.081 122.827 304.316 122.827 304.619V304.631C122.827 304.938 122.945 305.181 123.182 305.359C123.418 305.534 123.717 305.621 124.078 305.621C124.414 305.621 124.713 305.555 124.974 305.422C125.24 305.285 125.447 305.102 125.597 304.874C125.746 304.642 125.821 304.38 125.821 304.09V301.961C125.821 301.588 125.704 301.303 125.472 301.108C125.244 300.909 124.904 300.81 124.451 300.81C124.074 300.81 123.765 300.876 123.524 301.009C123.287 301.141 123.13 301.328 123.051 301.569L123.038 301.588H121.737L121.744 301.544C121.798 301.171 121.945 300.847 122.186 300.573C122.43 300.295 122.75 300.079 123.144 299.926C123.543 299.772 123.997 299.695 124.507 299.695C125.076 299.695 125.557 299.787 125.951 299.969C126.35 300.148 126.651 300.407 126.854 300.747C127.061 301.083 127.165 301.488 127.165 301.961V306.586H125.821V305.627H125.721C125.588 305.855 125.422 306.05 125.223 306.212C125.024 306.37 124.798 306.49 124.545 306.573C124.292 306.656 124.016 306.698 123.717 306.698ZM129.452 306.586V299.826H130.803V300.847H130.909C131.075 300.486 131.319 300.204 131.643 300C131.967 299.797 132.376 299.695 132.869 299.695C133.629 299.695 134.21 299.913 134.612 300.349C135.015 300.785 135.216 301.405 135.216 302.21V306.586H133.859V302.527C133.859 301.963 133.741 301.544 133.504 301.27C133.272 300.992 132.907 300.853 132.409 300.853C132.081 300.853 131.797 300.926 131.556 301.071C131.315 301.212 131.129 301.415 130.996 301.681C130.867 301.942 130.803 302.256 130.803 302.621V306.586H129.452ZM140.323 306.716C139.667 306.716 139.101 306.575 138.623 306.293C138.15 306.007 137.785 305.6 137.528 305.073C137.271 304.546 137.142 303.918 137.142 303.187V303.175C137.142 302.457 137.269 301.839 137.522 301.32C137.779 300.801 138.144 300.401 138.617 300.119C139.094 299.836 139.661 299.695 140.316 299.695C140.885 299.695 141.372 299.795 141.779 299.994C142.19 300.189 142.516 300.459 142.756 300.803C143.001 301.144 143.155 301.532 143.217 301.967L143.223 301.998H141.922L141.916 301.986C141.841 301.654 141.669 301.378 141.399 301.158C141.13 300.934 140.771 300.822 140.323 300.822C139.949 300.822 139.628 300.917 139.358 301.108C139.088 301.295 138.881 301.565 138.735 301.917C138.594 302.27 138.524 302.689 138.524 303.175V303.187C138.524 303.685 138.596 304.113 138.742 304.469C138.887 304.826 139.094 305.102 139.364 305.297C139.634 305.488 139.953 305.584 140.323 305.584C140.746 305.584 141.088 305.49 141.35 305.303C141.615 305.117 141.802 304.841 141.91 304.476L141.922 304.445L143.217 304.438L143.204 304.494C143.126 304.934 142.966 305.32 142.725 305.652C142.485 305.984 142.163 306.245 141.76 306.436C141.362 306.623 140.883 306.716 140.323 306.716ZM147.969 306.716C147.309 306.716 146.743 306.575 146.27 306.293C145.797 306.007 145.431 305.602 145.174 305.079C144.921 304.557 144.794 303.938 144.794 303.225V303.218C144.794 302.513 144.921 301.897 145.174 301.37C145.431 300.843 145.792 300.432 146.257 300.137C146.726 299.843 147.274 299.695 147.9 299.695C148.531 299.695 149.073 299.836 149.525 300.119C149.981 300.401 150.332 300.797 150.577 301.307C150.822 301.814 150.944 302.407 150.944 303.088V303.561H145.479V302.596H150.272L149.625 303.492V302.951C149.625 302.469 149.55 302.071 149.4 301.756C149.255 301.436 149.054 301.197 148.797 301.04C148.539 300.882 148.243 300.803 147.907 300.803C147.571 300.803 147.27 300.886 147.004 301.052C146.743 301.214 146.535 301.455 146.382 301.774C146.232 302.094 146.158 302.486 146.158 302.951V303.492C146.158 303.936 146.232 304.316 146.382 304.631C146.531 304.947 146.743 305.187 147.017 305.353C147.295 305.519 147.622 305.602 148 305.602C148.29 305.602 148.539 305.563 148.747 305.484C148.959 305.401 149.131 305.299 149.264 305.179C149.4 305.059 149.494 304.94 149.544 304.824L149.569 304.774H150.876L150.863 304.83C150.805 305.055 150.703 305.279 150.558 305.503C150.413 305.723 150.22 305.924 149.979 306.106C149.743 306.289 149.456 306.436 149.12 306.548C148.788 306.66 148.405 306.716 147.969 306.716ZM156.807 306.586V299.826H158.164V306.586H156.807ZM157.491 298.619C157.259 298.619 157.06 298.536 156.894 298.37C156.728 298.204 156.645 298.004 156.645 297.772C156.645 297.54 156.728 297.343 156.894 297.181C157.06 297.015 157.259 296.932 157.491 296.932C157.724 296.932 157.923 297.015 158.089 297.181C158.255 297.343 158.338 297.54 158.338 297.772C158.338 298.004 158.255 298.204 158.089 298.37C157.923 298.536 157.724 298.619 157.491 298.619ZM162.965 306.716C162.422 306.716 161.949 306.638 161.546 306.48C161.144 306.318 160.824 306.096 160.588 305.814C160.351 305.528 160.212 305.196 160.171 304.818V304.806H161.527V304.818C161.615 305.071 161.781 305.277 162.025 305.434C162.27 305.592 162.594 305.671 162.996 305.671C163.274 305.671 163.517 305.631 163.725 305.552C163.936 305.474 164.102 305.364 164.223 305.223C164.343 305.081 164.403 304.92 164.403 304.737V304.725C164.403 304.513 164.318 304.335 164.148 304.189C163.978 304.044 163.698 303.926 163.308 303.835L162.225 303.586C161.801 303.49 161.451 303.359 161.173 303.193C160.895 303.027 160.689 302.824 160.556 302.583C160.424 302.339 160.357 302.052 160.357 301.724V301.718C160.357 301.324 160.469 300.975 160.693 300.673C160.917 300.365 161.227 300.127 161.621 299.957C162.019 299.782 162.474 299.695 162.984 299.695C163.499 299.695 163.947 299.776 164.328 299.938C164.714 300.096 165.019 300.316 165.243 300.598C165.467 300.876 165.6 301.2 165.642 301.569V301.575H164.347V301.563C164.285 301.326 164.135 301.129 163.899 300.971C163.667 300.814 163.36 300.735 162.978 300.735C162.733 300.735 162.515 300.774 162.324 300.853C162.133 300.928 161.982 301.034 161.87 301.171C161.762 301.303 161.708 301.461 161.708 301.644V301.656C161.708 301.797 161.743 301.922 161.814 302.029C161.888 302.133 162.005 302.227 162.162 302.31C162.32 302.388 162.523 302.459 162.772 302.521L163.849 302.764C164.496 302.917 164.978 303.139 165.293 303.43C165.613 303.72 165.772 304.11 165.772 304.6V304.613C165.772 305.028 165.65 305.395 165.405 305.714C165.16 306.03 164.826 306.277 164.403 306.455C163.984 306.629 163.505 306.716 162.965 306.716ZM168.8 306.685C168.543 306.685 168.325 306.596 168.147 306.418C167.972 306.239 167.885 306.026 167.885 305.777C167.885 305.519 167.972 305.303 168.147 305.129C168.325 304.955 168.543 304.868 168.8 304.868C169.062 304.868 169.28 304.955 169.454 305.129C169.628 305.303 169.715 305.519 169.715 305.777C169.715 306.026 169.628 306.239 169.454 306.418C169.28 306.596 169.062 306.685 168.8 306.685ZM168.8 301.98C168.543 301.98 168.325 301.89 168.147 301.712C167.972 301.534 167.885 301.32 167.885 301.071C167.885 300.814 167.972 300.598 168.147 300.424C168.325 300.249 168.543 300.162 168.8 300.162C169.062 300.162 169.28 300.249 169.454 300.424C169.628 300.598 169.715 300.814 169.715 301.071C169.715 301.32 169.628 301.534 169.454 301.712C169.28 301.89 169.062 301.98 168.8 301.98Z" fill="black"/>
<path d="M41.7864 326.128V319.24H41.6955L39.6325 320.712V319.462L41.7921 317.927H43.0651V326.128H41.7864ZM48.6314 326.327C47.9987 326.327 47.4569 326.153 47.006 325.804C46.5552 325.456 46.2085 324.961 45.966 324.321C45.7235 323.677 45.6023 322.913 45.6023 322.031V322.019C45.6023 321.137 45.7235 320.375 45.966 319.735C46.2085 319.094 46.5552 318.6 47.006 318.251C47.4569 317.903 47.9987 317.729 48.6314 317.729C49.2641 317.729 49.8059 317.903 50.2567 318.251C50.7076 318.6 51.0543 319.094 51.2968 319.735C51.543 320.375 51.6662 321.137 51.6662 322.019V322.031C51.6662 322.913 51.543 323.677 51.2968 324.321C51.0543 324.961 50.7076 325.456 50.2567 325.804C49.8059 326.153 49.2641 326.327 48.6314 326.327ZM48.6314 325.264C48.9989 325.264 49.3115 325.134 49.5691 324.872C49.8305 324.611 50.0294 324.239 50.1658 323.758C50.306 323.273 50.3761 322.697 50.3761 322.031V322.019C50.3761 321.352 50.306 320.778 50.1658 320.297C50.0294 319.816 49.8305 319.447 49.5691 319.189C49.3115 318.928 48.9989 318.797 48.6314 318.797C48.2677 318.797 47.9551 318.928 47.6937 319.189C47.436 319.447 47.2371 319.816 47.0969 320.297C46.9605 320.778 46.8924 321.352 46.8924 322.019V322.031C46.8924 322.697 46.9605 323.273 47.0969 323.758C47.2371 324.239 47.436 324.611 47.6937 324.872C47.9551 325.134 48.2677 325.264 48.6314 325.264Z" fill="black"/>
<path d="M60.5739 326.839C60.4531 326.839 60.3509 326.797 60.2672 326.714C60.1836 326.621 60.1418 326.514 60.1418 326.393V318.295H57.5075C57.3867 318.295 57.2799 318.254 57.187 318.17C57.1033 318.086 57.0615 317.984 57.0615 317.863C57.0615 317.742 57.1033 317.64 57.187 317.557C57.2799 317.464 57.3867 317.417 57.5075 317.417H63.6542C63.775 317.417 63.8772 317.459 63.9608 317.543C64.0444 317.626 64.0862 317.733 64.0862 317.863C64.0862 317.984 64.0444 318.086 63.9608 318.17C63.8772 318.254 63.775 318.295 63.6542 318.295H61.0199V326.393C61.0199 326.514 60.9734 326.621 60.8805 326.714C60.7969 326.797 60.6947 326.839 60.5739 326.839Z" fill="black"/>
<path d="M58.0428 322.709C57.9698 322.537 58.0501 322.338 58.2222 322.265L62.6773 320.374C62.8495 320.301 63.0483 320.381 63.1214 320.554C63.1944 320.726 63.1141 320.925 62.942 320.998L58.4869 322.889C58.3147 322.962 58.1159 322.881 58.0428 322.709Z" fill="black"/>
<path d="M58.0962 324.867C58.0231 324.695 58.1034 324.496 58.2756 324.423L62.7306 322.532C62.9028 322.459 63.1016 322.54 63.1747 322.712C63.2477 322.884 63.1674 323.083 62.9953 323.156L58.5402 325.047C58.368 325.12 58.1692 325.04 58.0962 324.867Z" fill="black"/>
<path d="M267.941 326.009C267.407 326.009 266.918 325.92 266.475 325.742C266.036 325.56 265.681 325.298 265.412 324.957C265.143 324.613 264.999 324.198 264.98 323.713V323.707L266.163 323.701V323.713C266.2 323.955 266.288 324.173 266.424 324.366C266.56 324.56 266.754 324.711 267.004 324.821C267.254 324.927 267.572 324.98 267.958 324.98C268.352 324.98 268.673 324.931 268.919 324.832C269.165 324.73 269.345 324.592 269.459 324.418C269.576 324.243 269.635 324.046 269.635 323.827V323.815C269.635 323.523 269.536 323.285 269.339 323.099C269.142 322.913 268.771 322.756 268.226 322.627L267.379 322.428C266.901 322.315 266.498 322.165 266.168 321.98C265.839 321.79 265.587 321.557 265.412 321.28C265.242 321.004 265.157 320.674 265.157 320.292V320.28C265.157 319.822 265.278 319.426 265.52 319.092C265.763 318.759 266.092 318.501 266.509 318.32C266.93 318.138 267.407 318.047 267.941 318.047C268.468 318.047 268.94 318.142 269.356 318.331C269.773 318.52 270.105 318.786 270.351 319.127C270.601 319.468 270.736 319.869 270.755 320.331L270.749 320.337L269.572 320.343V320.331C269.546 320.062 269.459 319.835 269.311 319.649C269.167 319.464 268.978 319.322 268.743 319.223C268.508 319.125 268.243 319.075 267.947 319.075C267.602 319.075 267.312 319.128 267.078 319.235C266.843 319.337 266.665 319.473 266.543 319.644C266.426 319.81 266.367 319.992 266.367 320.189V320.201C266.367 320.375 266.411 320.534 266.498 320.678C266.585 320.818 266.723 320.943 266.913 321.053C267.106 321.163 267.364 321.256 267.686 321.332L268.532 321.531C269.283 321.705 269.855 321.961 270.249 322.298C270.647 322.631 270.845 323.099 270.845 323.701V323.713C270.845 324.209 270.713 324.628 270.448 324.969C270.186 325.31 269.836 325.569 269.396 325.747C268.957 325.922 268.472 326.009 267.941 326.009ZM267.6 326.947V317.103H268.277V326.947H267.6ZM279.239 317.729C279.652 317.729 280.048 317.806 280.426 317.962C280.809 318.113 281.152 318.356 281.455 318.689C281.758 319.019 281.997 319.449 282.171 319.979C282.345 320.509 282.433 321.152 282.433 321.906V321.917C282.433 322.841 282.304 323.633 282.046 324.293C281.789 324.948 281.417 325.452 280.932 325.804C280.451 326.153 279.871 326.327 279.193 326.327C278.708 326.327 278.271 326.238 277.88 326.06C277.494 325.882 277.172 325.636 276.914 325.321C276.657 325.007 276.482 324.645 276.391 324.236L276.374 324.168H277.642L277.664 324.224C277.74 324.433 277.85 324.613 277.994 324.764C278.138 324.916 278.31 325.035 278.511 325.122C278.712 325.206 278.941 325.247 279.199 325.247C279.657 325.247 280.031 325.113 280.318 324.844C280.61 324.571 280.828 324.209 280.972 323.758C281.116 323.307 281.197 322.811 281.216 322.269C281.22 322.213 281.222 322.158 281.222 322.105C281.222 322.051 281.222 322 281.222 321.951L280.972 320.581C280.972 320.248 280.894 319.947 280.739 319.678C280.587 319.409 280.381 319.195 280.12 319.036C279.862 318.877 279.572 318.797 279.25 318.797C278.932 318.797 278.642 318.875 278.381 319.03C278.123 319.185 277.916 319.396 277.761 319.661C277.606 319.922 277.528 320.218 277.528 320.547V320.559C277.528 320.892 277.602 321.19 277.75 321.451C277.897 321.712 278.1 321.919 278.358 322.07C278.615 322.218 278.907 322.292 279.233 322.292C279.563 322.292 279.858 322.218 280.12 322.07C280.381 321.923 280.587 321.722 280.739 321.468C280.894 321.21 280.972 320.917 280.972 320.587V320.581H281.307V322.076H281.108C281.01 322.296 280.862 322.5 280.665 322.69C280.468 322.879 280.226 323.033 279.938 323.15C279.654 323.264 279.326 323.321 278.955 323.321C278.435 323.321 277.973 323.203 277.568 322.968C277.162 322.73 276.844 322.406 276.613 321.997C276.382 321.584 276.266 321.116 276.266 320.593V320.581C276.266 320.032 276.393 319.543 276.647 319.115C276.905 318.683 277.257 318.344 277.704 318.098C278.155 317.852 278.667 317.729 279.239 317.729ZM283.668 328.259L284.168 324.918H285.487L284.538 328.259H283.668ZM290.246 317.729C290.659 317.729 291.055 317.806 291.434 317.962C291.817 318.113 292.159 318.356 292.463 318.689C292.766 319.019 293.004 319.449 293.179 319.979C293.353 320.509 293.44 321.152 293.44 321.906V321.917C293.44 322.841 293.311 323.633 293.054 324.293C292.796 324.948 292.425 325.452 291.94 325.804C291.459 326.153 290.879 326.327 290.201 326.327C289.716 326.327 289.278 326.238 288.888 326.06C288.501 325.882 288.179 325.636 287.922 325.321C287.664 325.007 287.49 324.645 287.399 324.236L287.382 324.168H288.649L288.672 324.224C288.748 324.433 288.858 324.613 289.002 324.764C289.146 324.916 289.318 325.035 289.519 325.122C289.72 325.206 289.949 325.247 290.206 325.247C290.665 325.247 291.038 325.113 291.326 324.844C291.618 324.571 291.836 324.209 291.98 323.758C292.123 323.307 292.205 322.811 292.224 322.269C292.228 322.213 292.23 322.158 292.23 322.105C292.23 322.051 292.23 322 292.23 321.951L291.98 320.581C291.98 320.248 291.902 319.947 291.746 319.678C291.595 319.409 291.388 319.195 291.127 319.036C290.869 318.877 290.58 318.797 290.258 318.797C289.939 318.797 289.649 318.875 289.388 319.03C289.13 319.185 288.924 319.396 288.769 319.661C288.613 319.922 288.536 320.218 288.536 320.547V320.559C288.536 320.892 288.609 321.19 288.757 321.451C288.905 321.712 289.108 321.919 289.365 322.07C289.623 322.218 289.915 322.292 290.24 322.292C290.57 322.292 290.866 322.218 291.127 322.07C291.388 321.923 291.595 321.722 291.746 321.468C291.902 321.21 291.98 320.917 291.98 320.587V320.581H292.315V322.076H292.116C292.017 322.296 291.87 322.5 291.673 322.69C291.476 322.879 291.233 323.033 290.945 323.15C290.661 323.264 290.333 323.321 289.962 323.321C289.443 323.321 288.981 323.203 288.575 322.968C288.17 322.73 287.852 322.406 287.621 321.997C287.389 321.584 287.274 321.116 287.274 320.593V320.581C287.274 320.032 287.401 319.543 287.655 319.115C287.912 318.683 288.265 318.344 288.712 318.098C289.163 317.852 289.674 317.729 290.246 317.729ZM298.211 317.729C298.624 317.729 299.02 317.806 299.398 317.962C299.781 318.113 300.124 318.356 300.427 318.689C300.73 319.019 300.969 319.449 301.143 319.979C301.317 320.509 301.405 321.152 301.405 321.906V321.917C301.405 322.841 301.276 323.633 301.018 324.293C300.761 324.948 300.389 325.452 299.904 325.804C299.423 326.153 298.843 326.327 298.165 326.327C297.68 326.327 297.243 326.238 296.852 326.06C296.466 325.882 296.144 325.636 295.886 325.321C295.629 325.007 295.454 324.645 295.363 324.236L295.346 324.168H296.614L296.636 324.224C296.712 324.433 296.822 324.613 296.966 324.764C297.11 324.916 297.282 325.035 297.483 325.122C297.684 325.206 297.913 325.247 298.171 325.247C298.629 325.247 299.003 325.113 299.29 324.844C299.582 324.571 299.8 324.209 299.944 323.758C300.088 323.307 300.169 322.811 300.188 322.269C300.192 322.213 300.194 322.158 300.194 322.105C300.194 322.051 300.194 322 300.194 321.951L299.944 320.581C299.944 320.248 299.866 319.947 299.711 319.678C299.559 319.409 299.353 319.195 299.092 319.036C298.834 318.877 298.544 318.797 298.222 318.797C297.904 318.797 297.614 318.875 297.353 319.03C297.095 319.185 296.888 319.396 296.733 319.661C296.578 319.922 296.5 320.218 296.5 320.547V320.559C296.5 320.892 296.574 321.19 296.722 321.451C296.869 321.712 297.072 321.919 297.33 322.07C297.587 322.218 297.879 322.292 298.205 322.292C298.535 322.292 298.83 322.218 299.092 322.07C299.353 321.923 299.559 321.722 299.711 321.468C299.866 321.21 299.944 320.917 299.944 320.587V320.581H300.279V322.076H300.08C299.982 322.296 299.834 322.5 299.637 322.69C299.44 322.879 299.198 323.033 298.91 323.15C298.626 323.264 298.298 323.321 297.927 323.321C297.407 323.321 296.945 323.203 296.54 322.968C296.134 322.73 295.816 322.406 295.585 321.997C295.354 321.584 295.238 321.116 295.238 320.593V320.581C295.238 320.032 295.365 319.543 295.619 319.115C295.877 318.683 296.229 318.344 296.676 318.098C297.127 317.852 297.639 317.729 298.211 317.729Z" fill="black"/>
<path d="M43.0635 357.973C42.3871 357.973 41.7979 357.867 41.2958 357.656C40.7937 357.44 40.3974 357.141 40.1069 356.759C39.8165 356.377 39.6505 355.936 39.609 355.433L39.6028 355.353H40.9783L40.9846 355.421C41.0136 355.691 41.1194 355.925 41.302 356.124C41.4887 356.324 41.7377 356.479 42.0489 356.591C42.3643 356.703 42.7232 356.759 43.1257 356.759C43.5034 356.759 43.8395 356.699 44.1341 356.579C44.4287 356.458 44.659 356.292 44.825 356.081C44.9951 355.869 45.0802 355.626 45.0802 355.353V355.346C45.0802 355.002 44.9495 354.716 44.6881 354.487C44.4266 354.259 43.9992 354.081 43.4058 353.952L42.4224 353.747C41.5136 353.552 40.8518 353.242 40.4368 352.819C40.0219 352.392 39.8144 351.846 39.8144 351.182V351.176C39.8185 350.657 39.9576 350.201 40.2314 349.807C40.5094 349.412 40.8933 349.105 41.3829 348.885C41.8726 348.666 42.4348 348.556 43.0697 348.556C43.7046 348.556 44.2586 348.666 44.7316 348.885C45.2088 349.101 45.5844 349.396 45.8582 349.769C46.1363 350.143 46.2919 350.564 46.3251 351.033L46.3313 351.114H44.9682L44.9557 351.033C44.9184 350.788 44.8167 350.57 44.6507 350.379C44.4889 350.188 44.271 350.039 43.9972 349.931C43.7274 349.819 43.4121 349.765 43.0511 349.769C42.7025 349.769 42.3913 349.823 42.1174 349.931C41.8435 350.035 41.6257 350.186 41.4638 350.386C41.3062 350.585 41.2273 350.825 41.2273 351.108V351.114C41.2273 351.446 41.3539 351.724 41.607 351.948C41.8643 352.168 42.2813 352.34 42.8581 352.464L43.8415 352.682C44.4681 352.815 44.9764 352.991 45.3665 353.211C45.7566 353.431 46.0408 353.703 46.2192 354.027C46.4018 354.346 46.4931 354.728 46.4931 355.172V355.178C46.4931 355.751 46.352 356.247 46.0699 356.666C45.7918 357.081 45.3956 357.402 44.881 357.631C44.3665 357.859 43.7606 357.973 43.0635 357.973ZM48.5561 360.008V350.995H49.9068V352.06H50.0126C50.1412 351.811 50.3072 351.599 50.5106 351.425C50.718 351.251 50.9546 351.116 51.2201 351.02C51.4857 350.925 51.7762 350.877 52.0915 350.877C52.66 350.877 53.1538 351.022 53.5729 351.313C53.992 351.599 54.3157 352.004 54.5439 352.527C54.7763 353.045 54.8925 353.66 54.8925 354.369V354.382C54.8925 355.095 54.7784 355.714 54.5502 356.236C54.3219 356.755 53.9983 357.158 53.5792 357.444C53.1601 357.726 52.6642 357.867 52.0915 357.867C51.7803 357.867 51.4899 357.819 51.2201 357.724C50.9504 357.624 50.7118 357.487 50.5043 357.313C50.2969 357.139 50.1329 356.929 50.0126 356.685H49.9068V360.008H48.5561ZM51.7056 356.709C52.0832 356.709 52.4069 356.616 52.6766 356.429C52.9463 356.243 53.1518 355.975 53.2928 355.626C53.4381 355.278 53.5107 354.863 53.5107 354.382V354.369C53.5107 353.884 53.4381 353.467 53.2928 353.118C53.1518 352.769 52.9463 352.502 52.6766 352.315C52.4069 352.128 52.0832 352.035 51.7056 352.035C51.3322 352.035 51.0085 352.13 50.7346 352.321C50.4608 352.508 50.2512 352.776 50.106 353.124C49.9607 353.469 49.8881 353.884 49.8881 354.369V354.382C49.8881 354.859 49.9607 355.272 50.106 355.62C50.2512 355.969 50.4608 356.238 50.7346 356.429C51.0085 356.616 51.3322 356.709 51.7056 356.709ZM59.7315 357.886C59.0718 357.886 58.5054 357.745 58.0323 357.463C57.5593 357.176 57.1941 356.772 56.9368 356.249C56.6837 355.726 56.5571 355.108 56.5571 354.394V354.388C56.5571 353.682 56.6837 353.066 56.9368 352.539C57.1941 352.012 57.5551 351.601 58.0199 351.307C58.4888 351.012 59.0365 350.865 59.6631 350.865C60.2938 350.865 60.8353 351.006 61.2876 351.288C61.7441 351.57 62.0947 351.966 62.3396 352.477C62.5844 352.983 62.7068 353.577 62.7068 354.257V354.73H57.2418V353.765H62.0346L61.3872 354.662V354.12C61.3872 353.639 61.3125 353.24 61.1631 352.925C61.0179 352.606 60.8167 352.367 60.5594 352.209C60.3021 352.052 60.0054 351.973 59.6693 351.973C59.3332 351.973 59.0323 352.056 58.7668 352.222C58.5054 352.384 58.2979 352.624 58.1443 352.944C57.995 353.263 57.9203 353.655 57.9203 354.12V354.662C57.9203 355.106 57.995 355.485 58.1443 355.801C58.2937 356.116 58.5054 356.357 58.7792 356.523C59.0572 356.689 59.3851 356.772 59.7627 356.772C60.0531 356.772 60.3021 356.732 60.5096 356.653C60.7212 356.57 60.8934 356.469 61.0262 356.348C61.1631 356.228 61.2565 356.11 61.3063 355.994L61.3312 355.944H62.6383L62.6259 356C62.5678 356.224 62.4661 356.448 62.3209 356.672C62.1756 356.892 61.9827 357.093 61.742 357.276C61.5055 357.458 61.2192 357.606 60.8831 357.718C60.5511 357.83 60.1673 357.886 59.7315 357.886ZM67.5396 357.886C66.884 357.886 66.3176 357.745 65.8404 357.463C65.3673 357.176 65.0022 356.77 64.7449 356.243C64.4876 355.716 64.359 355.087 64.359 354.357V354.344C64.359 353.626 64.4855 353.008 64.7387 352.489C64.9959 351.971 65.3611 351.57 65.8341 351.288C66.3113 351.006 66.8778 350.865 67.5334 350.865C68.1019 350.865 68.5895 350.964 68.9961 351.164C69.4069 351.359 69.7327 351.628 69.9733 351.973C70.2182 352.313 70.3717 352.701 70.4339 353.137L70.4402 353.168H69.1393L69.1331 353.155C69.0584 352.823 68.8862 352.547 68.6164 352.327C68.3467 352.103 67.9878 351.991 67.5396 351.991C67.1662 351.991 66.8446 352.087 66.5748 352.278C66.3051 352.464 66.0976 352.734 65.9524 353.087C65.8113 353.44 65.7408 353.859 65.7408 354.344V354.357C65.7408 354.855 65.8134 355.282 65.9586 355.639C66.1039 355.996 66.3113 356.272 66.5811 356.467C66.8508 356.658 67.1703 356.753 67.5396 356.753C67.9629 356.753 68.3052 356.66 68.5666 356.473C68.8322 356.286 69.0189 356.01 69.1268 355.645L69.1393 355.614L70.4339 355.608L70.4215 355.664C70.3426 356.104 70.1829 356.49 69.9422 356.821C69.7015 357.153 69.3799 357.415 68.9774 357.606C68.5791 357.792 68.0998 357.886 67.5396 357.886ZM72.3662 357.755V350.995H73.7231V357.755H72.3662ZM73.0509 349.788C72.8185 349.788 72.6193 349.705 72.4534 349.539C72.2874 349.373 72.2044 349.174 72.2044 348.941C72.2044 348.709 72.2874 348.512 72.4534 348.35C72.6193 348.184 72.8185 348.101 73.0509 348.101C73.2833 348.101 73.4825 348.184 73.6484 348.35C73.8144 348.512 73.8974 348.709 73.8974 348.941C73.8974 349.174 73.8144 349.373 73.6484 349.539C73.4825 349.705 73.2833 349.788 73.0509 349.788ZM76.5455 357.755V352.06H75.4313V350.995H76.5455V350.286C76.5455 349.834 76.6202 349.46 76.7696 349.166C76.9231 348.867 77.1555 348.645 77.4667 348.5C77.7779 348.354 78.1701 348.282 78.6431 348.282C78.7925 348.282 78.9315 348.288 79.0601 348.3C79.1929 348.309 79.3195 348.323 79.4398 348.344V349.34C79.3776 349.327 79.3008 349.319 79.2095 349.315C79.1224 349.307 79.0269 349.302 78.9232 349.302C78.5497 349.302 78.2821 349.392 78.1203 349.57C77.9626 349.749 77.8837 350.008 77.8837 350.348V350.995H79.3776V352.06H77.8962V357.755H76.5455ZM81.9385 360.133C81.8555 360.133 81.7663 360.129 81.6709 360.12C81.5754 360.116 81.4841 360.11 81.397 360.102V359.037C81.4634 359.046 81.536 359.052 81.6149 359.056C81.6978 359.06 81.7767 359.062 81.8514 359.062C82.1667 359.062 82.4219 358.988 82.617 358.838C82.812 358.693 82.9593 358.45 83.0589 358.11L83.1585 357.761L80.7061 350.995H82.1688L84.0797 357.089L83.6564 356.392H84.1731L83.756 357.089L85.6607 350.995H87.0861L84.5714 358.01C84.3805 358.55 84.1689 358.973 83.9365 359.28C83.7042 359.591 83.4282 359.811 83.1087 359.94C82.7892 360.069 82.3991 360.133 81.9385 360.133ZM94.5545 357.867C94.1271 357.867 93.7433 357.786 93.403 357.624C93.0669 357.458 92.8013 357.224 92.6063 356.921C92.4113 356.618 92.3138 356.263 92.3138 355.857V355.844C92.3138 355.438 92.4113 355.091 92.6063 354.805C92.8055 354.518 93.0918 354.294 93.4653 354.133C93.8429 353.967 94.2993 353.867 94.8346 353.834L97.3306 353.684V354.637L95.0213 354.786C94.5566 354.815 94.2143 354.915 93.9943 355.085C93.7744 355.251 93.6644 355.485 93.6644 355.788V355.801C93.6644 356.108 93.7827 356.35 94.0192 356.529C94.2558 356.703 94.5545 356.79 94.9155 356.79C95.2516 356.79 95.5504 356.724 95.8118 356.591C96.0774 356.454 96.2849 356.272 96.4343 356.043C96.5837 355.811 96.6583 355.55 96.6583 355.259V353.13C96.6583 352.757 96.5422 352.473 96.3098 352.278C96.0816 352.079 95.7413 351.979 95.289 351.979C94.9114 351.979 94.6022 352.045 94.3616 352.178C94.125 352.311 93.9674 352.498 93.8885 352.738L93.8761 352.757H92.5752L92.5814 352.713C92.6353 352.34 92.7827 352.016 93.0233 351.742C93.2682 351.464 93.5877 351.249 93.9819 351.095C94.3802 350.942 94.8346 350.865 95.345 350.865C95.9135 350.865 96.3949 350.956 96.7891 351.139C97.1874 351.317 97.4883 351.576 97.6916 351.917C97.8991 352.253 98.0028 352.657 98.0028 353.13V357.755H96.6583V356.797H96.5588C96.426 357.025 96.26 357.22 96.0608 357.382C95.8616 357.539 95.6355 357.66 95.3824 357.743C95.1292 357.826 94.8533 357.867 94.5545 357.867ZM100.29 357.755V350.995H101.641V352.035H101.746C101.896 351.661 102.128 351.373 102.444 351.17C102.763 350.966 103.145 350.865 103.589 350.865C103.896 350.865 104.172 350.915 104.417 351.014C104.661 351.114 104.871 351.255 105.045 351.437C105.224 351.616 105.363 351.827 105.462 352.072H105.568C105.68 351.827 105.838 351.616 106.041 351.437C106.245 351.255 106.481 351.114 106.751 351.014C107.025 350.915 107.315 350.865 107.622 350.865C108.079 350.865 108.469 350.954 108.792 351.132C109.116 351.307 109.363 351.56 109.533 351.892C109.703 352.224 109.788 352.624 109.788 353.093V357.755H108.438V353.417C108.438 353.106 108.39 352.848 108.294 352.645C108.199 352.437 108.054 352.282 107.859 352.178C107.668 352.074 107.427 352.023 107.137 352.023C106.85 352.023 106.599 352.089 106.384 352.222C106.172 352.35 106.006 352.525 105.886 352.745C105.769 352.96 105.711 353.205 105.711 353.479V357.755H104.361V353.28C104.361 353.023 104.307 352.801 104.199 352.614C104.095 352.423 103.946 352.278 103.751 352.178C103.556 352.074 103.325 352.023 103.06 352.023C102.79 352.023 102.547 352.093 102.331 352.234C102.12 352.375 101.952 352.566 101.827 352.807C101.703 353.043 101.641 353.309 101.641 353.603V357.755H100.29ZM114.926 357.886C114.266 357.886 113.696 357.745 113.214 357.463C112.737 357.18 112.37 356.778 112.113 356.255C111.855 355.728 111.727 355.104 111.727 354.382V354.369C111.727 353.643 111.855 353.018 112.113 352.496C112.374 351.973 112.743 351.57 113.221 351.288C113.702 351.006 114.27 350.865 114.926 350.865C115.586 350.865 116.154 351.006 116.632 351.288C117.109 351.566 117.476 351.969 117.733 352.496C117.995 353.018 118.125 353.643 118.125 354.369V354.382C118.125 355.104 117.995 355.728 117.733 356.255C117.476 356.778 117.109 357.18 116.632 357.463C116.158 357.745 115.59 357.886 114.926 357.886ZM114.926 356.753C115.312 356.753 115.64 356.66 115.91 356.473C116.179 356.282 116.385 356.01 116.526 355.658C116.667 355.305 116.737 354.879 116.737 354.382V354.369C116.737 353.867 116.667 353.44 116.526 353.087C116.385 352.734 116.179 352.464 115.91 352.278C115.64 352.087 115.312 351.991 114.926 351.991C114.54 351.991 114.212 352.087 113.943 352.278C113.673 352.464 113.465 352.734 113.32 353.087C113.179 353.44 113.109 353.867 113.109 354.369V354.382C113.109 354.879 113.179 355.305 113.32 355.658C113.465 356.01 113.673 356.282 113.943 356.473C114.212 356.66 114.54 356.753 114.926 356.753ZM122.367 357.886C121.861 357.886 121.433 357.788 121.085 357.593C120.74 357.394 120.481 357.108 120.307 356.734C120.136 356.357 120.051 355.902 120.051 355.371V350.995H121.402V355.054C121.402 355.61 121.512 356.027 121.732 356.305C121.952 356.583 122.311 356.722 122.809 356.722C123.074 356.722 123.311 356.682 123.518 356.604C123.726 356.521 123.9 356.402 124.041 356.249C124.182 356.095 124.286 355.911 124.352 355.695C124.423 355.479 124.458 355.234 124.458 354.96V350.995H125.815V357.755H124.458V356.734H124.359C124.251 356.975 124.103 357.182 123.917 357.357C123.73 357.527 123.506 357.658 123.245 357.749C122.987 357.84 122.695 357.886 122.367 357.886ZM128.14 357.755V350.995H129.49V352.016H129.596C129.762 351.655 130.007 351.373 130.331 351.17C130.654 350.966 131.063 350.865 131.557 350.865C132.316 350.865 132.897 351.083 133.3 351.518C133.702 351.954 133.903 352.574 133.903 353.379V357.755H132.546V353.697C132.546 353.133 132.428 352.713 132.192 352.44C131.959 352.162 131.594 352.023 131.096 352.023C130.768 352.023 130.484 352.095 130.243 352.24C130.003 352.381 129.816 352.585 129.683 352.85C129.555 353.112 129.49 353.425 129.49 353.79V357.755H128.14ZM138.717 357.799C137.979 357.799 137.444 357.658 137.112 357.375C136.784 357.089 136.62 356.622 136.62 355.975V352.06H135.562V350.995H136.62V349.29H138.002V350.995H139.452V352.06H138.002V355.645C138.002 356.01 138.074 356.274 138.22 356.436C138.365 356.593 138.605 356.672 138.942 356.672C139.041 356.672 139.126 356.67 139.197 356.666C139.271 356.662 139.357 356.655 139.452 356.647V357.73C139.344 357.747 139.228 357.761 139.103 357.774C138.979 357.79 138.85 357.799 138.717 357.799ZM142.455 357.855C142.198 357.855 141.98 357.766 141.801 357.587C141.627 357.409 141.54 357.195 141.54 356.946C141.54 356.689 141.627 356.473 141.801 356.299C141.98 356.124 142.198 356.037 142.455 356.037C142.716 356.037 142.934 356.124 143.108 356.299C143.283 356.473 143.37 356.689 143.37 356.946C143.37 357.195 143.283 357.409 143.108 357.587C142.934 357.766 142.716 357.855 142.455 357.855ZM142.455 353.149C142.198 353.149 141.98 353.06 141.801 352.881C141.627 352.703 141.54 352.489 141.54 352.24C141.54 351.983 141.627 351.767 141.801 351.593C141.98 351.419 142.198 351.332 142.455 351.332C142.716 351.332 142.934 351.419 143.108 351.593C143.283 351.767 143.37 351.983 143.37 352.24C143.37 352.489 143.283 352.703 143.108 352.881C142.934 353.06 142.716 353.149 142.455 353.149Z" fill="black"/>
<path d="M45.462 392.298V375.357H45.4079L40.239 378.956V376.507L45.435 372.772H47.8165V392.298H45.462Z" fill="black"/>
<path d="M288.941 396.178C288.407 396.178 287.918 396.089 287.475 395.911C287.036 395.729 286.681 395.468 286.412 395.127C286.143 394.782 285.999 394.367 285.98 393.882V393.877L287.163 393.871V393.882C287.2 394.125 287.288 394.343 287.424 394.536C287.56 394.729 287.754 394.881 288.004 394.99C288.254 395.097 288.572 395.15 288.958 395.15C289.352 395.15 289.673 395.1 289.919 395.002C290.165 394.9 290.345 394.761 290.459 394.587C290.576 394.413 290.635 394.216 290.635 393.996V393.985C290.635 393.693 290.536 393.454 290.339 393.269C290.142 393.083 289.771 392.926 289.226 392.797L288.379 392.598C287.901 392.484 287.498 392.335 287.168 392.149C286.839 391.96 286.587 391.727 286.412 391.45C286.242 391.173 286.157 390.844 286.157 390.461V390.45C286.157 389.991 286.278 389.595 286.52 389.262C286.763 388.929 287.092 388.671 287.509 388.489C287.93 388.307 288.407 388.216 288.941 388.216C289.468 388.216 289.94 388.311 290.356 388.5C290.773 388.69 291.105 388.955 291.351 389.296C291.601 389.637 291.736 390.039 291.755 390.501L291.749 390.507L290.572 390.512V390.501C290.546 390.232 290.459 390.005 290.311 389.819C290.167 389.633 289.978 389.491 289.743 389.393C289.508 389.294 289.243 389.245 288.947 389.245C288.602 389.245 288.312 389.298 288.078 389.404C287.843 389.506 287.665 389.643 287.543 389.813C287.426 389.98 287.367 390.162 287.367 390.359V390.37C287.367 390.544 287.411 390.704 287.498 390.848C287.585 390.988 287.723 391.113 287.913 391.223C288.106 391.332 288.364 391.425 288.686 391.501L289.532 391.7C290.283 391.874 290.855 392.13 291.249 392.467C291.647 392.801 291.845 393.269 291.845 393.871V393.882C291.845 394.379 291.713 394.797 291.448 395.138C291.186 395.479 290.836 395.739 290.396 395.917C289.957 396.091 289.472 396.178 288.941 396.178ZM288.6 397.116V387.273H289.277V397.116H288.6ZM299.432 396.298V389.41H299.341L297.278 390.882V389.631L299.437 388.097H300.71V396.298H299.432Z" fill="black"/>
<circle cx="150.579" cy="275.574" r="2.77119" fill="white" fill-opacity="0.5"/>
<circle cx="163.881" cy="275.574" r="2.77119" fill="white"/>
<circle cx="177.182" cy="275.574" r="2.77119" fill="white" fill-opacity="0.5"/>
<circle cx="190.484" cy="275.574" r="2.77119" fill="white" fill-opacity="0.5"/>
<rect x="38.8994" y="410.321" width="263.263" height="270.082" rx="16.6271" fill="white"/>
<path d="M171.275 454.847V473.319H153.219V454.847H171.275ZM153.219 563.372V589.696H171.275V563.372H153.219ZM207.387 663.585V645.113H189.331V626.64H171.275V663.585H207.387ZM243.499 526.428H189.331V544.9H243.499V526.428ZM243.499 563.372H268.778V544.9H243.499V563.372ZM243.499 589.696V608.168H286.834V563.372H268.778V589.696H243.499ZM189.331 427.138H171.275V454.847H189.331V427.138ZM171.275 510.264H189.331V473.319H171.275V491.792H153.219V544.9H171.275V510.264ZM55.7168 526.428V563.372H73.7728V544.9H100.857V526.428H55.7168ZM189.331 563.372V544.9H171.275V563.372H189.331ZM225.443 581.845H243.499V563.372H225.443V581.845ZM268.778 544.9H286.834V526.428H268.778V544.9ZM207.387 563.372H189.331V589.696H171.275V608.168H207.387V563.372ZM153.219 626.64H171.275V608.168H153.219V626.64ZM207.387 608.168V626.64H243.499V608.168H207.387ZM261.555 645.113V626.64H243.499V645.113H261.555ZM286.834 663.585V645.113H261.555V663.585H286.834ZM225.443 663.585H243.499V645.113H225.443V663.585ZM136.969 544.9V526.428H118.913V544.9H100.857V563.372H153.219V544.9H136.969ZM136.969 510.264H55.7168V427.138H136.969V510.264ZM118.913 445.611H73.7728V491.792H118.913V445.611ZM105.371 459.465H87.3148V477.938H105.371V459.465ZM286.834 427.138V510.264H205.582V427.138H286.834ZM268.778 445.611H223.638V491.792H268.778V445.611ZM255.236 459.465H237.18V477.938H255.236V459.465ZM55.7168 580.459H136.969V663.585H55.7168V580.459ZM73.7728 645.113H118.913V598.932H73.7728V645.113ZM87.3148 631.258H105.371V612.786H87.3148V631.258Z" fill="black"/>
</g>
</g>
</g>
<rect x="4.09457" y="3.64926" width="333.765" height="714.423" rx="30.8351" stroke="url(#paint1_linear_19_895)" stroke-width="6.70148"/>
<defs>
<filter id="filter0_d_19_895" x="2.59735" y="83.2908" width="335.868" height="663.976" filterUnits="userSpaceOnUse" color-interpolation-filters="sRGB">
<feFlood flood-opacity="0" result="BackgroundImageFix"/>
<feColorMatrix in="SourceAlpha" type="matrix" values="0 0 0 0 0 0 0 0 0 0 0 0 0 0 0 0 0 0 127 0" result="hardAlpha"/>
<feOffset dy="-3.32542"/>
<feGaussianBlur stdDeviation="2.21695"/>
<feComposite in2="hardAlpha" operator="out"/>
<feColorMatrix type="matrix" values="0 0 0 0 0 0 0 0 0 0 0 0 0 0 0 0 0 0 0.25 0"/>
<feBlend mode="normal" in2="BackgroundImageFix" result="effect1_dropShadow_19_895"/>
<feBlend mode="normal" in="SourceGraphic" in2="effect1_dropShadow_19_895" result="shape"/>
</filter>
<filter id="filter1_d_19_895" x="125.899" y="238.871" width="23.8318" height="23.3062" filterUnits="userSpaceOnUse" color-interpolation-filters="sRGB">
<feFlood flood-opacity="0" result="BackgroundImageFix"/>
<feColorMatrix in="SourceAlpha" type="matrix" values="0 0 0 0 0 0 0 0 0 0 0 0 0 0 0 0 0 0 127 0" result="hardAlpha"/>
<feOffset dy="1.10847"/>
<feGaussianBlur stdDeviation="2.77119"/>
<feComposite in2="hardAlpha" operator="out"/>
<feColorMatrix type="matrix" values="0 0 0 0 1 0 0 0 0 1 0 0 0 0 1 0 0 0 1 0"/>
<feBlend mode="normal" in2="BackgroundImageFix" result="effect1_dropShadow_19_895"/>
<feBlend mode="normal" in="SourceGraphic" in2="effect1_dropShadow_19_895" result="shape"/>
</filter>
<linearGradient id="paint0_linear_19_895" x1="318.789" y1="448.337" x2="22.2725" y2="448.337" gradientUnits="userSpaceOnUse">
<stop stop-color="#63FFE7"/>
<stop offset="1" stop-color="#47C6E8"/>
</linearGradient>
<linearGradient id="paint1_linear_19_895" x1="33.4159" y1="359.215" x2="321.82" y2="359.215" gradientUnits="userSpaceOnUse">
<stop stop-color="#FF4C44"/>
<stop offset="0.208333" stop-color="#FECC35"/>
<stop offset="0.473958" stop-color="#65EF48"/>
<stop offset="0.729167" stop-color="#5859FF"/>
<stop offset="1" stop-color="#CF4CFD"/>
</linearGradient>
<clipPath id="clip0_19_895">
<rect x="7.44531" y="7" width="327.064" height="707.722" rx="27.4843" fill="white"/>
</clipPath>
<clipPath id="clip1_19_895">
<path d="M22.2725 213.499C22.2725 204.317 29.7167 196.872 38.8996 196.872H302.162C311.345 196.872 318.789 204.317 318.789 213.499V683.174C318.789 692.357 311.345 699.801 302.162 699.801H38.8996C29.7167 699.801 22.2725 692.357 22.2725 683.174V213.499Z" fill="white"/>
</clipPath>
</defs>
</svg>
